<svg xmlns="http://www.w3.org/2000/svg" xmlns:xlink="http://www.w3.org/1999/xlink" viewBox="0 0 1929 358"><defs><style>.cls-1{fill:none;}.cls-2,.cls-4{opacity:0.5;}.cls-2{fill:url(#New_Gradient_Swatch_3);}.cls-3{opacity:0.34;fill:url(#linear-gradient);}.cls-4{fill:url(#New_Gradient_Swatch_3-2);}.cls-5{clip-path:url(#clip-path);}.cls-6,.cls-7,.cls-8,.cls-9{opacity:0.3;}.cls-6{fill:url(#linear-gradient-2);}.cls-7{fill:url(#linear-gradient-3);}.cls-8{fill:url(#linear-gradient-4);}.cls-9{fill:url(#linear-gradient-5);}</style><linearGradient id="New_Gradient_Swatch_3" x1="1451" y1="206" x2="1451" gradientUnits="userSpaceOnUse"><stop offset="0" stop-color="#ec3e5b"/><stop offset="1" stop-color="#ec3e5b" stop-opacity="0"/></linearGradient><linearGradient id="linear-gradient" x1="965" x2="965" y2="358" gradientUnits="userSpaceOnUse"><stop offset="0" stop-color="#ff36bf" stop-opacity="0.2"/><stop offset="0.47" stop-color="#f53a8c" stop-opacity="0.61"/><stop offset="0.83" stop-color="#ef3d69" stop-opacity="0.89"/><stop offset="1" stop-color="#ec3e5b"/></linearGradient><linearGradient id="New_Gradient_Swatch_3-2" x1="1" y1="107.5" x2="917" y2="107.5" xlink:href="#New_Gradient_Swatch_3"/><clipPath id="clip-path"><polygon class="cls-1" points="917 0 970 0 1254 11 1339 19 1477 20 1929 73 1929 214 1 215 1 88 404 25 550 27 690 4 917 0"/></clipPath><linearGradient id="linear-gradient-2" x1="595.5" x2="595.5" y2="218" gradientUnits="userSpaceOnUse"><stop offset="0" stop-color="#36faea" stop-opacity="0.9"/><stop offset="0.35" stop-color="#62f9ad" stop-opacity="0.66"/><stop offset="1" stop-color="#b9f734" stop-opacity="0.2"/></linearGradient><linearGradient id="linear-gradient-3" x1="1334" y1="8" x2="1334" y2="221" xlink:href="#linear-gradient-2"/><linearGradient id="linear-gradient-4" x1="1722" y1="9" x2="1722" y2="222" xlink:href="#linear-gradient-2"/><linearGradient id="linear-gradient-5" x1="201.5" y1="24" x2="201.5" y2="222" xlink:href="#linear-gradient-2"/></defs><title>floor_3</title><g id="Layer_2" data-name="Layer 2"><g id="Layer_1-2" data-name="Layer 1"><polygon class="cls-2" points="1259 10 973 0 1929 206 1929 73 1477 20 1338 19 1259 10"/><polygon class="cls-3" points="917 0 970 0 1929 206 1929 358 3 358 1 215 917 0"/><polygon class="cls-4" points="1 88 404 24 546 27 690 4 917 0 1 215 1 88"/><g class="cls-5"><rect class="cls-6" x="545" width="101" height="218"/><rect class="cls-7" x="1293" y="8" width="82" height="213"/><rect class="cls-8" x="1515" y="9" width="414" height="213"/><rect class="cls-9" y="24" width="403" height="198"/></g></g></g></svg>