<svg xmlns="http://www.w3.org/2000/svg" xmlns:xlink="http://www.w3.org/1999/xlink" viewBox="0 0 1927 762.2"><defs><style>.cls-1{fill:url(#New_Gradient_Swatch_1);}.cls-2{fill:#180724;}</style><linearGradient id="New_Gradient_Swatch_1" x1="967.5" x2="967.5" y2="761.2" gradientUnits="userSpaceOnUse"><stop offset="0" stop-color="#36faea"/><stop offset="0.46" stop-color="#78f88f"/><stop offset="0.83" stop-color="#a7f74d"/><stop offset="1" stop-color="#b9f734"/></linearGradient></defs><title>skyline1</title><g id="Layer_2" data-name="Layer 2"><g id="Layer_1-2" data-name="Layer 1"><path class="cls-1" d="M1927,377.4h-37.58V299h3.2l-27.19-15.19h-42.38l-24,13.4v-87h-5.6V191.1h-19.19v-24H1744.7v24H1729.5v19.19h-4v18.39h-21.59v20h-22.39V193.5H1616V412.59h-62.37v-40h-30.38V266.26h-13.59V163.91l-27.19-3.2-70.36,3.2V294.25h-4V228.68h-25.59v44.78H1360.9V8h-7.2V0h-64V8h-8.8v99.95h-12.79v7.2h-6.4V228.68h-8v13.59h-32V412.59h-29.58V395.79H1165.8V111.94h-71.56l-32.38,4V280.65H993.09V404.59h-52v8h-52V391.8H775.6V210.29l-37.58-4H721.23v-4H695.64v4H666.06V412.59H655.66V111.94h-2.4V62.37h-4.8V52.77h-12V48H619.68v-6.4l-90.35-8V62.37H516.54V412.59H499.74V370.21H435V312.64h-2.4v-32H407.79v32h-3.2V239.88h3.2v-28H354.22V198.3H311.84v8h-9.6v5.6h-24v16.79H235.08v-8.8h-36v8.8h-44v3.2h11.19v8h-3.2v8h-2.4v24H123.94v-24H92V412.59H56.77l-2.4-19.19H8V761.2H1927ZM268.66,231.88h9.59v8h4.8v37.58h-8.8V247.87h-2.4v-8h-3.2Z"/><path class="cls-2" d="M1919,378.4h-37.58V300h3.2l-27.19-15.19h-42.38l-24,13.4v-87h-5.6V192.1h-19.19v-24H1736.7v24H1721.5v19.19h-4v18.39h-21.59v20h-22.39V194.5H1608V413.59h-62.37v-40h-30.38V267.26h-13.59V164.91l-27.19-3.2-70.36,3.2V295.25h-4V229.68h-25.59v44.78H1352.9V9h-7.2V1h-64V9h-8.8v99.95h-12.79v7.2h-6.4V229.68h-8v13.59h-32V413.59h-29.58V396.79H1157.8V112.94h-71.56l-32.38,4V281.65H985.09V405.59h-52v8h-52V392.8H767.6V211.29l-37.58-4H713.23v-4H687.64v4H658.06V413.59H647.66V112.94h-2.4V63.37h-4.8V53.77h-12V49H611.68v-6.4l-90.35-8V63.37H508.54V413.59H491.74V371.21H427V313.64h-2.4v-32H399.79v32h-3.2V240.88h3.2v-28H346.22V199.3H303.84v8h-9.6v5.6h-24v16.79H227.08v-8.8h-36v8.8h-44v3.2h11.19v8h-3.2v8h-2.4v24H115.94v-24H84V413.59H48.77l-2.4-19.19H0V762.2H1919ZM260.66,232.88h9.59v8h4.8v37.58h-8.8V248.87h-2.4v-8h-3.2Z"/></g></g></svg>