<svg xmlns="http://www.w3.org/2000/svg" xmlns:xlink="http://www.w3.org/1999/xlink" viewBox="0 0 1927 531.18"><defs><style>.cls-1{fill:url(#New_Gradient_Swatch_1);}.cls-2{fill:#180724;}</style><linearGradient id="New_Gradient_Swatch_1" x1="967" x2="967" y2="530.18" gradientUnits="userSpaceOnUse"><stop offset="0" stop-color="#36faea"/><stop offset="0.46" stop-color="#78f88f"/><stop offset="0.83" stop-color="#a7f74d"/><stop offset="1" stop-color="#b9f734"/></linearGradient></defs><title>skyline2</title><g id="Layer_2" data-name="Layer 2"><g id="Layer_1-2" data-name="Layer 1"><path class="cls-1" d="M1919,195.12v-7.2h-36.8v16.79h-36v-28l-24-1.2V115.15l-44-2.24v-7.07A55.82,55.82,0,0,0,1743,54V50.38L1727,36v-3.2h-4V24h-1.6v8.8H1719V36l-16.8,14.39v3.91a55.18,55.18,0,0,0-34.4,51.27v68.77h-26.4v-1.6H1631v5.6h-48v4h8.8v8.8h-10.4v10.4h-12.8v-16H1539v-6.4h-13.6v-4.8h1.6v-2.4h-1.6V158.33h1.6v-2.4h-44V269.49h-8v-10.4h3.2v-3.2H1475V243.1h3.2v-3.2H1475V227.11h3.2v-3.2H1419V157.53c0-11-1-20-12-20h-1.6v-3.2h4.8l-2.4-7.2h-11.2l-2.4,7.2h4v3.2h-12V125.16a5.16,5.16,0,0,0,3.2-4.77v-6h-9.6v-8.8h-8v-7.2H1343v7.2h-9.6v32h-17.6c-11,0-12,9-12,20v16h-7.2V108.75H1283V98.36h-16.8v10.4h-12v-3.2h-28.8l-28.8,8.8V293.48h-24V279.88h-88.8v-16l-52.8-3.77v-117h-4.8V106.36h-13.6v-7.2H959.8v7.2h-12V44h2.4V36h-2.4V7.2L883.8,0,820.6,7.2V36h-3.2v8h3.2V267.89l-32,6.4v16.79H750.2V161.53L739,159.67V40l-33.6-3.2H688.6v-6.4H670.2v2.4H607.8l-3.2,4H542.78L543,338.26H508.6v20.79H493L482.2,343.86l-24-3.43V249.5H441.4V200.72h-5.6V187.92H423v-3.2H398.2v3.2h-4.8v12.79H332.6V243.1H323v6.4h-4V44l-30.4-1.56V33.59l-20-2.4-48,2.4V43l-38.4,1V93.56h-8.8V227.91H7V530.18H1927V195.12Z"/><path class="cls-2" d="M1912,196.12v-7.2h-36.8v16.79h-36v-28l-24-1.2V116.15l-44-2.24v-7.07A55.82,55.82,0,0,0,1736,55V51.38L1720,37v-3.2h-4V25h-1.6v8.8H1712V37l-16.8,14.39v3.91a55.18,55.18,0,0,0-34.4,51.27v68.77h-26.4v-1.6H1624v5.6h-48v4h8.8v8.8h-10.4v10.4h-12.8v-16H1532v-6.4h-13.6v-4.8h1.6v-2.4h-1.6V159.33h1.6v-2.4h-44V270.49h-8v-10.4h3.2v-3.2H1468V244.1h3.2v-3.2H1468V228.11h3.2v-3.2H1412V158.53c0-11-1-20-12-20h-1.6v-3.2h4.8l-2.4-7.2h-11.2l-2.4,7.2h4v3.2h-12V126.16a5.16,5.16,0,0,0,3.2-4.77v-6h-9.6v-8.8h-8v-7.2H1336v7.2h-9.6v32h-17.6c-11,0-12,9-12,20v16h-7.2V109.75H1276V99.36h-16.8v10.4h-12v-3.2h-28.8l-28.8,8.8V294.48h-24V280.88h-88.8v-16l-52.8-3.77v-117h-4.8V107.36h-13.6v-7.2H952.8v7.2h-12V45h2.4V37h-2.4V8.2L876.8,1,813.6,8.2V37h-3.2v8h3.2V268.89l-32,6.4v16.79H743.2V162.53L732,160.67V41l-33.6-3.2H681.6v-6.4H663.2v2.4H600.8l-3.2,4H535.78L536,339.26H501.6v20.79H486L475.2,344.86l-24-3.43V250.5H434.4V201.72h-5.6V188.92H416v-3.2H391.2v3.2h-4.8v12.79H325.6V244.1H316v6.4h-4V45l-30.4-1.56V34.59l-20-2.4-48,2.4V44l-38.4,1V94.56h-8.8V228.91H0V531.18H1920V196.12Z"/></g></g></svg>