<svg xmlns="http://www.w3.org/2000/svg" xmlns:xlink="http://www.w3.org/1999/xlink" viewBox="0 0 1925 656.09"><defs><style>.cls-1{fill:url(#New_Gradient_Swatch_2);}.cls-2{fill:#180724;}</style><linearGradient id="New_Gradient_Swatch_2" x1="967.5" x2="967.5" y2="655.09" gradientUnits="userSpaceOnUse"><stop offset="0" stop-color="#ec3e5b"/><stop offset="0.68" stop-color="#f9399e"/><stop offset="1" stop-color="#ff36bf"/></linearGradient></defs><title>skyline3</title><g id="Layer_2" data-name="Layer 2"><g id="Layer_1-2" data-name="Layer 1"><polygon class="cls-1" points="1925 655.09 1925 283.26 1917.82 277.68 1917.82 275.28 1890.69 275.28 1890.69 272.89 1893.08 272.89 1893.08 270.49 1890.69 270.49 1890.69 267.3 1810.9 267.3 1810.9 270.49 1809.3 270.49 1809.3 272.89 1810.9 272.89 1810.9 275.28 1802.12 275.28 1802.12 283.26 1795.74 283.26 1795.74 351.88 1780.58 351.88 1780.58 311.99 1766.21 292.83 1766.21 268.1 1690.41 268.1 1690.41 288.05 1661.69 288.05 1661.69 296.82 1660.89 296.82 1642.48 304.8 1634.56 304.8 1634.56 114.9 1631.37 114.9 1631.37 44.68 1613.02 44.68 1613.02 35.91 1609.82 35.91 1609.82 32.72 1589.08 10.37 1589.08 0 1578.7 0 1578.7 10.37 1557.96 32.72 1557.96 35.91 1554.77 35.91 1554.77 44.68 1536.41 44.68 1536.41 114.9 1533.22 114.9 1533.22 328.74 1526.04 328.74 1526.04 356.67 1519.66 356.67 1519.66 414.12 1498.12 414.12 1498.12 402.15 1401.57 402.15 1401.57 304.8 1401.57 271.29 1401.57 237.78 1401.57 215.44 1269.91 215.44 1261.93 237.78 1261.93 248.95 1249.96 248.95 1241.98 271.29 1241.98 292.83 1217.25 292.83 1217.25 267.3 1184.53 267.3 1184.53 110.11 1139.85 106.92 1082.4 110.11 1082.4 120.48 1045.7 120.48 1045.7 319.96 1018.57 319.96 1018.57 253.74 983.46 253.74 983.46 356.67 975.48 356.67 975.48 177.14 975.48 151.6 975.48 134.85 975.48 114.9 928.4 114.9 928.4 104.53 928.4 98.94 928.4 94.15 915.08 94.15 904.47 77.4 872.55 77.4 856.75 98.94 851 98.94 851 114.9 847.81 114.9 847.81 122.88 840.63 122.88 840.63 133.25 837.44 133.25 837.44 134.85 814.3 134.85 814.3 151.6 789.57 151.6 789.57 186.71 690.62 186.71 690.62 222.62 662.7 222.62 636.86 233.79 626.79 233.79 626.79 239.38 629.98 239.38 629.98 517.05 619.61 517.05 619.61 414.92 614.02 414.92 614.02 201.07 614.02 167.56 614.02 104.53 566.64 100.54 445.66 104.53 445.66 167.56 420.93 167.56 420.93 289.64 388.21 289.64 388.21 485.93 381.83 485.93 381.83 499.5 345.13 498.98 303.63 501.41 303.63 517.05 260.55 517.05 260.55 468.38 226.24 466.09 226.24 246.56 190.33 243.37 157.62 243.37 157.62 229 100.96 229 100.96 177.14 104.15 177.14 104.15 159.58 50.69 159.58 50.69 171.55 50.69 177.14 50.69 517.05 10 517.05 10 655.09 1925 655.09"/><polygon class="cls-2" points="1919 656.09 1919 284.26 1911.8 278.68 1911.8 276.28 1884.62 276.28 1884.62 273.89 1887.02 273.89 1887.02 271.49 1884.62 271.49 1884.62 268.3 1804.66 268.3 1804.66 271.49 1803.06 271.49 1803.06 273.89 1804.66 273.89 1804.66 276.28 1795.86 276.28 1795.86 284.26 1789.47 284.26 1789.47 352.88 1774.28 352.88 1774.28 312.99 1759.88 293.83 1759.88 269.1 1683.92 269.1 1683.92 289.05 1655.14 289.05 1655.14 297.82 1654.34 297.82 1635.89 305.8 1627.95 305.8 1627.95 115.9 1624.75 115.9 1624.75 45.68 1606.36 45.68 1606.36 36.91 1603.16 36.91 1603.16 33.72 1582.38 11.37 1582.38 1 1571.98 1 1571.98 11.37 1551.19 33.72 1551.19 36.91 1547.99 36.91 1547.99 45.68 1529.6 45.68 1529.6 115.9 1526.4 115.9 1526.4 329.74 1519.21 329.74 1519.21 357.67 1512.81 357.67 1512.81 415.12 1491.22 415.12 1491.22 403.15 1394.47 403.15 1394.47 305.8 1394.47 272.29 1394.47 238.78 1394.47 216.44 1262.54 216.44 1254.55 238.78 1254.55 249.95 1242.55 249.95 1234.56 272.29 1234.56 293.83 1209.77 293.83 1209.77 268.3 1176.99 268.3 1176.99 111.11 1132.21 107.92 1074.64 111.11 1074.64 121.48 1037.86 121.48 1037.86 320.96 1010.67 320.96 1010.67 254.74 975.49 254.74 975.49 357.67 967.5 357.67 967.5 178.14 967.5 152.6 967.5 135.85 967.5 115.9 920.32 115.9 920.32 105.53 920.32 99.94 920.32 95.15 906.97 95.15 896.33 78.4 864.35 78.4 848.52 99.94 842.76 99.94 842.76 115.9 839.56 115.9 839.56 123.88 832.37 123.88 832.37 134.25 829.17 134.25 829.17 135.85 805.98 135.85 805.98 152.6 781.19 152.6 781.19 187.71 682.04 187.71 682.04 223.62 654.06 223.62 628.17 234.79 618.08 234.79 618.08 240.38 621.28 240.38 621.28 518.05 610.88 518.05 610.88 415.92 605.28 415.92 605.28 202.07 605.28 168.56 605.28 105.53 557.8 101.54 436.57 105.53 436.57 168.56 411.79 168.56 411.79 290.64 379 290.64 379 486.93 372.61 486.93 372.61 500.5 335.82 499.98 294.25 502.41 294.25 518.05 251.07 518.05 251.07 469.38 216.69 467.09 216.69 247.56 180.71 244.37 147.92 244.37 147.92 230 91.15 230 91.15 178.14 94.35 178.14 94.35 160.58 40.78 160.58 40.78 172.55 40.78 178.14 40.78 518.05 0 518.05 0 656.09 1919 656.09"/></g></g></svg>