<svg version="1" xmlns="http://www.w3.org/2000/svg" width="933.333" height="933.333" viewBox="0 0 700.000000 700.000000"><path d="M179 53.2c0 47.4-.1 50.7-1.7 51-1 .2-2.8.2-4 0l-2.3-.4V3H13v161.5c0 88.8.3 161.6.8 161.6 1.7.3 154.8.5 155.7.2.6-.2 1-18.3 1-51.6v-51.2l3.5.1c2 0 4 .3 4.6.6.7.5.9 17.3.8 51.2-.2 38.5 0 50.5.9 50.8.7.2 36.1.4 78.7.4l77.5-.1.1-161.8.2-161.7-44.2-.1c-24.2 0-59.7-.1-78.8-.2L179 2.5v50.7zM523.2 15.3c-2.9 5.6-7.7 14.9-10.8 20.7-3 5.8-9.8 18.8-15.1 29-5.3 10.2-9.9 18.9-10.3 19.5-.4.5-4.9 9.1-10 19s-10.5 20.2-12 23c-1.5 2.7-7.1 13.5-12.5 24-5.4 10.4-10.1 19.4-10.5 20-.4.5-4.7 8.6-9.5 18-4.8 9.3-10.7 20.7-13.1 25.2-11.3 21.3-13.6 25.7-20.4 38.8-4 7.7-9.2 17.6-11.5 22-2.3 4.4-7 13.4-10.5 20-3.4 6.6-8.5 16.2-11.2 21.3-2.7 5.2-4.7 9.7-4.3 10 .4.4 76.2.7 168.5.7h167.9l-8.4-16c-4.5-8.8-9.9-18.9-11.8-22.5-1.8-3.6-6.2-11.9-9.7-18.5-3.4-6.6-8.7-16.7-11.8-22.5-11-21.1-17.1-32.7-23.2-44.5-3.5-6.6-8.5-16.3-11.3-21.5-2.7-5.2-7.2-13.8-9.9-19-2.8-5.2-8.4-16-12.6-24-4.1-8-8.9-17.2-10.7-20.5-1.8-3.3-6-11.4-9.5-18-3.4-6.6-8.6-16.5-11.5-22-2.9-5.5-7.8-15-11-21-3.2-6.1-7.9-15.1-10.5-20-2.6-5-7.3-14.1-10.6-20.3-3.2-6.1-6-11.2-6.3-11.2-.4 0-3 4.6-5.9 10.3zM166 350.7c-61.8 4.6-115.6 40.2-144.4 95.7-2.5 4.7-4.3 8.6-4 8.6.2 0-.4 1.7-1.5 3.7-2.7 5.4-7.6 21.4-9.5 30.8-2.7 13.9-3 17.6-3 35 0 14.7.3 20.8 1.8 27.5.1.8.6 3.7 1 6.5 2.6 16.6 13.2 42.8 24.3 59.8 5.3 7.9 5 7.6 12.1 16.3 8.8 10.7 32.9 32.4 36.1 32.4.5 0 1.1.3 1.3.8.7 1.8 28.8 16.9 28.8 15.5 0-.3.6-.1 1.3.4 1.4 1.1 14 5.6 20.7 7.4 5.8 1.6 5.9 1.6 10 2.3 1.9.4 4.2.9 5 1.1 10.6 3.1 44.4 3.7 59.5 1 4.4-.8 13.6-2.6 16.4-3.1 1.3-.3 7.6-2.3 14-4.5s12.1-4.1 12.6-4.2c.6-.2 5.7-2.6 11.5-5.5 20.1-9.9 37.3-22.3 52.9-38.2 7.9-8.1 19.7-22.8 23.6-29.7l1.8-3.1-3.5-4.9c-1.9-2.6-10.5-15.2-19-27.8-8.5-12.7-19.4-28.7-24.1-35.7-4.7-7-9.1-13.6-9.6-14.7-1-1.9 10-18.4 49.3-73.8 3.6-5.1 6.6-9.6 6.6-10.1 0-.4-1.6-3.1-3.5-6.1-1.9-2.9-3.5-5.5-3.5-5.7 0-.2-2.7-4.2-6-8.8-13.9-19.5-32-36-51.2-46.4-16-8.7-36.3-15.9-52.3-18.7-1.6-.3-3.7-.8-4.5-1-7.2-1.9-38.8-3.6-51-2.8zM368.8 360.8c-1.5.3-1.6 15.7-1.7 166.3l-.2 165.9 2.3.1c13.4.3 326.1-.1 326.4-.4.3-.3-.9-2.8-2.6-5.6-1.6-2.9-3-5.4-3-5.6 0-.2-1.5-3-3.4-6.2-1.8-3.2-4.9-8.7-6.8-12.3-3.8-6.9-7-12.6-12.5-22.5-1.9-3.3-4-7.2-4.6-8.8-.6-1.5-1.5-2.7-1.9-2.7-.4 0-.8-.4-.8-1 0-.5-3.4-7.1-7.6-14.7-4.2-7.6-8.9-16.1-10.4-18.8-1.5-2.8-5-9.1-7.7-14-2.7-5-6.6-11.9-8.5-15.5-2-3.6-7.9-14.3-13.2-23.9-5.3-9.6-9.6-17.8-9.6-18.4 0-.8 6.2-11.9 11-19.7.5-.8 10.2-17.5 21.5-37s20.9-36.2 21.4-37c1.7-2.7 10.3-17.3 12.4-20.9 1.1-2 2.8-5 3.8-6.6 1-1.7 2.8-4.8 4-7 1.2-2.2 4.6-8 7.5-12.8 3-4.9 5.4-9 5.4-9.2 0-.3 1.4-2.7 3.1-5.5 1.7-2.8 2.9-5.3 2.7-5.5-.5-.5-324.5-1.2-327-.7z"/></svg>