<svg xmlns="http://www.w3.org/2000/svg" xmlns:xlink="http://www.w3.org/1999/xlink" viewBox="13580 4275 800 800">
  <defs>
    <style>
      .cls-1 {
        clip-path: url(#clip-Spinner);
      }

      .cls-2 {
        fill: #d0d6e0;
      }
    </style>
    <clipPath id="clip-Spinner">
      <rect x="13580" y="4275" width="800" height="800"/>
    </clipPath>
  </defs>
  <g id="Spinner" class="cls-1">
    <path id="Subtraction_125" data-name="Subtraction 125" class="cls-2" d="M-1648-665a327.54,327.54,0,0,1-134.235-28.446l2.1-6.569A320.718,320.718,0,0,0-1648-671.855c73.926,0,143.5-24.3,201.2-70.261l4.246,5.381a328.74,328.74,0,0,1-94.735,52.7A329.145,329.145,0,0,1-1648-665Zm260.212-127.024h0l-5.271-4.387a320.072,320.072,0,0,0,58.531-119.8l6.519,2.192a326.913,326.913,0,0,1-59.778,121.994Zm-526.361-7.837A327.455,327.455,0,0,1-1978-995a329.1,329.1,0,0,1,86.738-222.99l5.185,4.487A322.226,322.226,0,0,0-1971.145-995a320.71,320.71,0,0,0,61.984,190.348l-4.987,4.791h0Zm412.428-483.358A319.741,319.741,0,0,0-1648-1318.145c-8.807,0-17.7.359-26.439,1.066v-6.877c8.741-.693,17.637-1.043,26.44-1.043a326.438,326.438,0,0,1,150.176,36.073l-3.9,5.708Z" transform="translate(15633 5669.999)"/>
  </g>
</svg>
