<svg xmlns="http://www.w3.org/2000/svg" viewBox="11742.921 2778.078 813.595 806.732">
  <defs>
    <style>
      .cls-1, .cls-4, .cls-6 {
        fill: none;
      }

      .cls-1, .cls-4 {
        stroke: #515b6b;
      }

      .cls-1 {
        stroke-width: 5px;
      }

      .cls-2 {
        fill: #515b6b;
      }

      .cls-3 {
        fill: #d0d6e0;
      }

      .cls-4 {
        stroke-width: 10px;
      }

      .cls-5 {
        stroke: none;
      }
    </style>
  </defs>
  <g id="Group_503" data-name="Group 503" transform="translate(11188 2642)">
    <g id="Ellipse_107" data-name="Ellipse 107" class="cls-1" transform="translate(775 355)">
      <circle class="cls-5" cx="185" cy="185" r="185"/>
      <circle class="cls-6" cx="185" cy="185" r="182.5"/>
    </g>
    <g id="Group_194" data-name="Group 194" transform="translate(10 10)">
      <path id="Exclusion_37" data-name="Exclusion 37" class="cls-2" d="M270,540A270,270,0,0,1,79.081,79.081,270,270,0,0,1,460.919,460.919,268.232,268.232,0,0,1,270,540Zm0-486.964C150.365,53.036,53.036,150.365,53.036,270S150.365,486.964,270,486.964,486.964,389.635,486.964,270,389.634,53.036,270,53.036Z" transform="translate(680 260)"/>
      <path id="Subtraction_77" data-name="Subtraction 77" class="cls-3" d="M270,540A270,270,0,0,1,79.082,79.08,271.676,271.676,0,0,1,136.89,34.954l26.326,46.224A217.657,217.657,0,0,0,53.036,270c0,119.634,97.33,216.964,216.964,216.964S486.964,389.634,486.964,270c0-119.373-97.113-216.7-216.482-216.964V0A270,270,0,0,1,460.919,460.919,268.233,268.233,0,0,1,270,540Z" transform="translate(680 260.001)"/>
    </g>
    <g id="Ellipse_112" data-name="Ellipse 112" class="cls-4" transform="translate(670 250)">
      <circle class="cls-5" cx="290" cy="290" r="290"/>
      <circle class="cls-6" cx="290" cy="290" r="285"/>
    </g>
    <path id="Subtraction_78" data-name="Subtraction 78" class="cls-3" d="M-1648-665a327.54,327.54,0,0,1-134.235-28.446l2.1-6.569A320.718,320.718,0,0,0-1648-671.855c73.926,0,143.5-24.3,201.2-70.261l4.246,5.381a328.74,328.74,0,0,1-94.735,52.7A329.145,329.145,0,0,1-1648-665Zm260.212-127.024h0l-5.271-4.387a320.072,320.072,0,0,0,58.531-119.8l6.519,2.192a326.913,326.913,0,0,1-59.778,121.994Zm-526.361-7.837A327.455,327.455,0,0,1-1978-995a329.1,329.1,0,0,1,86.738-222.99l5.185,4.487A322.226,322.226,0,0,0-1971.145-995a320.71,320.71,0,0,0,61.984,190.348l-4.987,4.791h0Zm412.428-483.358A319.741,319.741,0,0,0-1648-1318.145c-8.807,0-17.7.359-26.439,1.066v-6.877c8.741-.693,17.637-1.043,26.44-1.043a326.438,326.438,0,0,1,150.176,36.073l-3.9,5.708Z" transform="translate(460.893 2402.673) rotate(74)"/>
  </g>
</svg>
