<svg xmlns="http://www.w3.org/2000/svg" xmlns:xlink="http://www.w3.org/1999/xlink" viewBox="11699 -2994 172 145">
  <defs>
    <style>
      .cls-1 {
        clip-path: url(#clip-Mail_Icon);
      }

      .cls-2 {
        fill: #d0d6e0;
      }
    </style>
    <clipPath id="clip-Mail_Icon">
      <rect x="11699" y="-2994" width="172" height="145"/>
    </clipPath>
  </defs>
  <g id="Mail_Icon" data-name="Mail Icon" class="cls-1">
    <path id="Subtraction_2" data-name="Subtraction 2" class="cls-2" d="M-9732.032,3105.327h-87.02a25.028,25.028,0,0,1-25-25v-43.2l65.528,37.835a5,5,0,0,0,2.491.669q.22,0,.437-.019c.141.012.284.02.43.02a4.985,4.985,0,0,0,2.5-.67l65.638-37.9v43.257A25.028,25.028,0,0,1-9732.032,3105.327Zm-43.562-40.218-68.075-39.3c-.124-.072-.253-.139-.381-.2V3019a25.028,25.028,0,0,1,25-25h87.02a25.028,25.028,0,0,1,25,25v6.559a5.129,5.129,0,0,0-.49.248l-68.072,39.3Z" transform="translate(21560.051 -5971)"/>
  </g>
</svg>
