<svg xmlns="http://www.w3.org/2000/svg" xmlns:xlink="http://www.w3.org/1999/xlink" viewBox="10365 -2769 145 145">
  <defs>
    <style>
      .cls-1 {
        clip-path: url(#clip-Speakers_Icon);
      }

      .cls-2 {
        fill: #f9b1b1;
      }
    </style>
    <clipPath id="clip-Speakers_Icon">
      <rect x="10365" y="-2769" width="145" height="145"/>
    </clipPath>
  </defs>
  <g id="Speakers_Icon" data-name="Speakers Icon" class="cls-1">
    <g id="Group_581" data-name="Group 581" transform="translate(10373 -2761)">
      <g id="Group_580" data-name="Group 580" transform="translate(41.272 38.049)">
        <path id="Rectangle_628" data-name="Rectangle 628" class="cls-2" d="M2,0H15.292a0,0,0,0,1,0,0V22.393a0,0,0,0,1,0,0H2a2,2,0,0,1-2-2V2A2,2,0,0,1,2,0Z" transform="translate(0 14.395)"/>
        <path id="Path_548" data-name="Path 548" class="cls-2" d="M0,6.555,17.613-8c1.926,0,2.267.313,2.267,2.079V40.624c0,1.767-.174,2.559-2.267,2.559L0,28.788Z" transform="translate(13.763 8)"/>
        <ellipse id="Ellipse_313" data-name="Ellipse 313" class="cls-2" cx="6.117" cy="6.398" rx="6.117" ry="6.398" transform="translate(26.761 18.328)"/>
      </g>
    </g>
  </g>
</svg>
