<svg xmlns="http://www.w3.org/2000/svg" xmlns:xlink="http://www.w3.org/1999/xlink" viewBox="10577 -2769 145 145">
  <defs>
    <style>
      .cls-1 {
        clip-path: url(#clip-Sponsors_Icon);
      }

      .cls-2 {
        fill: none;
        stroke: #f9b1b1;
        stroke-width: 5px;
      }

      .cls-3 {
        fill: #f9b1b1;
      }
    </style>
    <clipPath id="clip-Sponsors_Icon">
      <rect x="10577" y="-2769" width="145" height="145"/>
    </clipPath>
  </defs>
  <g id="Sponsors_Icon" data-name="Sponsors Icon" class="cls-1">
    <g id="Group_589" data-name="Group 589" transform="translate(10553.486 -2796.012)">
      <g id="Group_588" data-name="Group 588" transform="translate(23.606 99.291) rotate(-43)">
        <path id="Union_23" data-name="Union 23" class="cls-2" d="M6.667,99.143A6.742,6.742,0,0,1-.107,92.367L.012,58.289q0-.044,0-.089L.192,6.915A6.856,6.856,0,0,1,7.013.092L49.267-.057a6.741,6.741,0,0,1,6.772,6.776L55.86,57.977c0,.039,0,.078,0,.117l-.119,34.077a6.855,6.855,0,0,1-6.821,6.823l-.368,0a6.741,6.741,0,0,1-6.772-6.776l.107-30.605L41.78,92.221a6.858,6.858,0,0,1-6.821,6.823H34.59a6.74,6.74,0,0,1-6.772-6.776l.107-30.6-.107,30.6A6.856,6.856,0,0,1,21,99.092l-.368,0a6.741,6.741,0,0,1-6.772-6.778l.107-30.6h0l-.107,30.6a6.855,6.855,0,0,1-6.819,6.825Z" transform="translate(21.677 -0.025)"/>
        <g id="Group_587" data-name="Group 587" transform="translate(-0.022 18.819)">
          <path id="Path_554" data-name="Path 554" class="cls-3" d="M0,0,60.531.211l.08,22.954a6.741,6.741,0,0,1-6.776,6.773L6.9,29.774A6.856,6.856,0,0,1,.08,22.954Z" transform="translate(75.977 67.779) rotate(-90)"/>
          <path id="Path_555" data-name="Path 555" class="cls-3" d="M5.218.005a5.259,5.259,0,0,1,5.245,5.228l.077,25.023a5.181,5.181,0,0,1-5.213,5.2A5.259,5.259,0,0,1,.083,30.223L.005,5.2A5.181,5.181,0,0,1,5.218.005Z" transform="matrix(0.208, -0.978, 0.978, 0.208, 48.668, 10.219)"/>
          <path id="Path_556" data-name="Path 556" class="cls-3" d="M5.209.006a5.264,5.264,0,0,1,5.24,5.237L10.5,21.082a5.176,5.176,0,0,1-5.2,5.2,5.264,5.264,0,0,1-5.24-5.237L.006,5.207A5.176,5.176,0,0,1,5.209.006Z" transform="translate(3.395 42.623) rotate(-90)"/>
          <path id="Path_557" data-name="Path 557" class="cls-3" d="M5.209.006a5.264,5.264,0,0,1,5.24,5.237l.067,19.313a5.176,5.176,0,0,1-5.2,5.2A5.264,5.264,0,0,1,.073,24.52L.006,5.207A5.176,5.176,0,0,1,5.209.006Z" transform="translate(-0.035 29.936) rotate(-90)"/>
          <path id="Path_558" data-name="Path 558" class="cls-3" d="M5.209.006a5.264,5.264,0,0,1,5.24,5.237l.043,12.365a5.176,5.176,0,0,1-5.2,5.2,5.264,5.264,0,0,1-5.24-5.237L.006,5.207A5.176,5.176,0,0,1,5.209.006Z" transform="translate(6.958 17.213) rotate(-90)"/>
          <path id="Path_559" data-name="Path 559" class="cls-3" d="M5.209.006a5.264,5.264,0,0,1,5.24,5.237l.043,12.365a5.176,5.176,0,0,1-5.2,5.2,5.264,5.264,0,0,1-5.24-5.237L.006,5.207A5.176,5.176,0,0,1,5.209.006Z" transform="translate(6.825 55.31) rotate(-90)"/>
        </g>
      </g>
    </g>
  </g>
</svg>
