<svg xmlns="http://www.w3.org/2000/svg" xmlns:xlink="http://www.w3.org/1999/xlink" viewBox="0 0 1929.01 1587.66"><defs><style>.cls-1,.cls-11,.cls-12,.cls-13,.cls-15,.cls-16,.cls-17,.cls-18,.cls-19,.cls-2,.cls-20,.cls-21,.cls-22,.cls-23,.cls-25,.cls-26,.cls-27,.cls-3,.cls-4,.cls-40,.cls-42,.cls-46,.cls-48,.cls-5,.cls-50,.cls-53,.cls-55,.cls-8,.cls-9{fill:#180724;}.cls-1,.cls-12,.cls-13,.cls-15,.cls-16,.cls-17,.cls-18,.cls-19,.cls-2,.cls-20,.cls-21,.cls-22,.cls-23,.cls-25,.cls-26,.cls-27,.cls-28,.cls-29,.cls-3,.cls-30,.cls-32,.cls-34,.cls-35,.cls-36,.cls-37,.cls-38,.cls-39,.cls-4,.cls-40,.cls-41,.cls-42,.cls-43,.cls-44,.cls-45,.cls-46,.cls-47,.cls-48,.cls-49,.cls-5,.cls-50,.cls-51,.cls-52,.cls-53,.cls-54,.cls-55,.cls-56,.cls-57,.cls-9{stroke-miterlimit:10;}.cls-1,.cls-12,.cls-13,.cls-2,.cls-22,.cls-23,.cls-25,.cls-28,.cls-29,.cls-3,.cls-30,.cls-32,.cls-34,.cls-35,.cls-37,.cls-45,.cls-46,.cls-47,.cls-5,.cls-52,.cls-53,.cls-54,.cls-9{stroke-width:3px;}.cls-1{stroke:url(#New_Gradient_Swatch_1);}.cls-2,.cls-28{stroke:url(#New_Gradient_Swatch_1-2);}.cls-29,.cls-3{stroke:url(#New_Gradient_Swatch_1-3);}.cls-15,.cls-26,.cls-36,.cls-4,.cls-55,.cls-56{stroke-width:4px;}.cls-4{stroke:url(#New_Gradient_Swatch_1-4);}.cls-30,.cls-5{stroke:url(#New_Gradient_Swatch_1-5);}.cls-6{opacity:0.19;}.cls-11,.cls-33,.cls-37,.cls-7{opacity:0.2;}.cls-32,.cls-9{stroke:url(#New_Gradient_Swatch_1-6);}.cls-10{opacity:0.38;}.cls-12,.cls-34{stroke:url(#New_Gradient_Swatch_1-8);}.cls-13,.cls-35{stroke:url(#New_Gradient_Swatch_1-10);}.cls-14{opacity:0.49;}.cls-15,.cls-36{stroke:url(#New_Gradient_Swatch_1-12);}.cls-16,.cls-17,.cls-38{stroke-width:5px;}.cls-16{stroke:url(#New_Gradient_Swatch_1-13);}.cls-17,.cls-38{stroke:url(#New_Gradient_Swatch_1-14);}.cls-18,.cls-19,.cls-39,.cls-42,.cls-43,.cls-48,.cls-49,.cls-50,.cls-51{stroke-width:6px;}.cls-18{stroke:url(#New_Gradient_Swatch_1-15);}.cls-19,.cls-39{stroke:url(#New_Gradient_Swatch_1-16);}.cls-20,.cls-21,.cls-27,.cls-40,.cls-41,.cls-44,.cls-57{stroke-width:7px;}.cls-20{stroke:url(#New_Gradient_Swatch_1-17);}.cls-21,.cls-44,.cls-57{opacity:0.7;}.cls-21,.cls-44{stroke:url(#New_Gradient_Swatch_1-18);}.cls-22{stroke:url(#New_Gradient_Swatch_1-19);}.cls-23{stroke:url(#New_Gradient_Swatch_1-20);}.cls-24{opacity:0.09;}.cls-25{stroke:url(#New_Gradient_Swatch_1-22);}.cls-26{stroke:url(#New_Gradient_Swatch_1-24);}.cls-27{stroke:url(#New_Gradient_Swatch_1-26);}.cls-28{fill:url(#linear-gradient);}.cls-29{fill:url(#linear-gradient-2);}.cls-30{fill:url(#linear-gradient-3);}.cls-31,.cls-33{fill:#36faea;}.cls-32{fill:url(#linear-gradient-4);}.cls-34{fill:url(#linear-gradient-5);}.cls-35{fill:url(#linear-gradient-6);}.cls-36{fill:url(#linear-gradient-7);}.cls-37,.cls-52{fill:none;stroke:#36faea;}.cls-38{fill:url(#linear-gradient-8);}.cls-39{fill:url(#linear-gradient-9);}.cls-40{stroke:url(#linear-gradient-10);}.cls-41{fill:url(#linear-gradient-11);stroke:url(#New_Gradient_Swatch_1-43);}.cls-42{stroke:url(#New_Gradient_Swatch_1-44);}.cls-43{fill:url(#linear-gradient-12);stroke:url(#New_Gradient_Swatch_1-45);}.cls-44{fill:url(#linear-gradient-13);}.cls-45{fill:url(#linear-gradient-14);stroke:url(#New_Gradient_Swatch_1-48);}.cls-46,.cls-47{stroke:url(#New_Gradient_Swatch_1-49);}.cls-47{fill:url(#linear-gradient-15);}.cls-48,.cls-49{stroke:url(#New_Gradient_Swatch_1-51);}.cls-49{fill:url(#linear-gradient-16);}.cls-50,.cls-51{stroke:url(#New_Gradient_Swatch_1-53);}.cls-51{fill:url(#linear-gradient-17);}.cls-53,.cls-54{stroke:url(#New_Gradient_Swatch_1-55);}.cls-54{fill:url(#linear-gradient-18);}.cls-55,.cls-56{stroke:url(#New_Gradient_Swatch_1-57);}.cls-56{fill:url(#linear-gradient-19);}.cls-57{fill:url(#linear-gradient-20);stroke:url(#New_Gradient_Swatch_1-59);}</style><linearGradient id="New_Gradient_Swatch_1" x1="354.29" y1="225.2" x2="354.29" y2="348.84" gradientUnits="userSpaceOnUse"><stop offset="0" stop-color="#36faea"/><stop offset="0.46" stop-color="#78f88f"/><stop offset="0.83" stop-color="#a7f74d"/><stop offset="1" stop-color="#b9f734"/></linearGradient><linearGradient id="New_Gradient_Swatch_1-2" x1="353.79" y1="225.2" x2="353.79" y2="348.84" xlink:href="#New_Gradient_Swatch_1"/><linearGradient id="New_Gradient_Swatch_1-3" x1="330.47" y1="163.9" x2="330.47" y2="267.26" gradientTransform="translate(6.6 5.64) rotate(-0.25)" xlink:href="#New_Gradient_Swatch_1"/><linearGradient id="New_Gradient_Swatch_1-4" x1="304.25" y1="35.05" x2="304.25" y2="170.55" gradientTransform="translate(608.5 205.61) rotate(-180)" xlink:href="#New_Gradient_Swatch_1"/><linearGradient id="New_Gradient_Swatch_1-5" x1="286" y1="168.05" x2="286" y2="228.05" xlink:href="#New_Gradient_Swatch_1"/><linearGradient id="New_Gradient_Swatch_1-6" x1="285.75" y1="225.05" x2="285.75" y2="290.55" xlink:href="#New_Gradient_Swatch_1"/><linearGradient id="New_Gradient_Swatch_1-8" x1="372" y1="289.37" x2="372" y2="792.47" xlink:href="#New_Gradient_Swatch_1"/><linearGradient id="New_Gradient_Swatch_1-10" x1="285.5" y1="289.05" x2="285.5" y2="743.27" xlink:href="#New_Gradient_Swatch_1"/><linearGradient id="New_Gradient_Swatch_1-12" x1="593.5" y1="403.56" x2="593.5" y2="1523.36" xlink:href="#New_Gradient_Swatch_1"/><linearGradient id="New_Gradient_Swatch_1-13" x1="454.5" y1="404.05" x2="454.5" y2="1523.05" xlink:href="#New_Gradient_Swatch_1"/><linearGradient id="New_Gradient_Swatch_1-14" x1="454" y1="403.55" x2="454" y2="1522.55" xlink:href="#New_Gradient_Swatch_1"/><linearGradient id="New_Gradient_Swatch_1-15" x1="64" y1="253.05" x2="64" y2="587.08" xlink:href="#New_Gradient_Swatch_1"/><linearGradient id="New_Gradient_Swatch_1-16" x1="63" y1="253.05" x2="63" y2="587.08" xlink:href="#New_Gradient_Swatch_1"/><linearGradient id="New_Gradient_Swatch_1-17" x1="202.5" y1="495.26" x2="202.5" y2="1587.66" xlink:href="#New_Gradient_Swatch_1"/><linearGradient id="New_Gradient_Swatch_1-18" x1="202.5" y1="494.26" x2="202.5" y2="1586.66" xlink:href="#New_Gradient_Swatch_1"/><linearGradient id="New_Gradient_Swatch_1-19" x1="1318.5" y1="193.46" x2="1318.5" y2="745.05" xlink:href="#New_Gradient_Swatch_1"/><linearGradient id="New_Gradient_Swatch_1-20" x1="1405" y1="194.05" x2="1405" y2="887.05" xlink:href="#New_Gradient_Swatch_1"/><linearGradient id="New_Gradient_Swatch_1-22" x1="1332.5" y1="491.25" x2="1332.5" y2="1523.25" xlink:href="#New_Gradient_Swatch_1"/><linearGradient id="New_Gradient_Swatch_1-24" x1="1443.5" y1="492.05" x2="1443.5" y2="1523.05" xlink:href="#New_Gradient_Swatch_1"/><linearGradient id="New_Gradient_Swatch_1-26" x1="1718.5" y1="334.51" x2="1718.5" y2="1575.52" xlink:href="#New_Gradient_Swatch_1"/><linearGradient id="linear-gradient" x1="353.75" y1="229.55" x2="353.75" y2="344.55" gradientUnits="userSpaceOnUse"><stop offset="0" stop-color="#36faea" stop-opacity="0.6"/><stop offset="0.16" stop-color="#4df9ca" stop-opacity="0.6"/><stop offset="0.73" stop-color="#9bf85e" stop-opacity="0.6"/><stop offset="1" stop-color="#b9f734" stop-opacity="0.6"/></linearGradient><linearGradient id="linear-gradient-2" x1="330.47" y1="168.34" x2="330.47" y2="266.84" gradientTransform="translate(6.6 5.64) rotate(-0.25)" gradientUnits="userSpaceOnUse"><stop offset="0" stop-color="#36faea" stop-opacity="0.6"/><stop offset="0.16" stop-color="#4df9ca" stop-opacity="0.6"/><stop offset="0.73" stop-color="#9bf85e" stop-opacity="0.6"/><stop offset="1" stop-color="#b9f734" stop-opacity="0.6"/></linearGradient><linearGradient id="linear-gradient-3" x1="286" y1="169.55" x2="286" y2="226.55" gradientUnits="userSpaceOnUse"><stop offset="0" stop-color="#36faea" stop-opacity="0.2"/><stop offset="0.28" stop-color="#5ef9b2" stop-opacity="0.2"/><stop offset="1" stop-color="#b9f734" stop-opacity="0.2"/></linearGradient><linearGradient id="linear-gradient-4" x1="285.75" y1="226.55" x2="285.75" y2="290.55" xlink:href="#linear-gradient-3"/><linearGradient id="linear-gradient-5" x1="372" y1="293.55" x2="372" y2="789.55" gradientUnits="userSpaceOnUse"><stop offset="0" stop-color="#36faea" stop-opacity="0.5"/><stop offset="0.01" stop-color="#37fae8" stop-opacity="0.5"/><stop offset="0.68" stop-color="#95f867" stop-opacity="0.5"/><stop offset="1" stop-color="#b9f734" stop-opacity="0.5"/></linearGradient><linearGradient id="linear-gradient-6" x1="285.5" y1="290.55" x2="285.5" y2="740.55" xlink:href="#linear-gradient-3"/><linearGradient id="linear-gradient-7" x1="593.5" y1="410.05" x2="593.5" y2="1521.05" gradientUnits="userSpaceOnUse"><stop offset="0" stop-color="#36faea" stop-opacity="0.6"/><stop offset="0.16" stop-color="#4df9ca" stop-opacity="0.6"/><stop offset="0.73" stop-color="#9bf85e" stop-opacity="0.6"/><stop offset="1" stop-color="#b9f734" stop-opacity="0.6"/></linearGradient><linearGradient id="linear-gradient-8" x1="454" y1="406.05" x2="454" y2="1520.05" xlink:href="#linear-gradient-3"/><linearGradient id="linear-gradient-9" x1="63" y1="256.05" x2="63" y2="581.05" xlink:href="#linear-gradient-3"/><linearGradient id="linear-gradient-10" x1="273" y1="523.83" x2="273" y2="728.42" gradientUnits="userSpaceOnUse"><stop offset="0" stop-color="#36faea" stop-opacity="0.5"/><stop offset="0.01" stop-color="#37fae8" stop-opacity="0.5"/><stop offset="0.68" stop-color="#95f867" stop-opacity="0.5"/><stop offset="1" stop-color="#b9f734" stop-opacity="0.5"/></linearGradient><linearGradient id="linear-gradient-11" x1="273" y1="531.55" x2="273" y2="721.55" xlink:href="#linear-gradient-10"/><linearGradient id="New_Gradient_Swatch_1-43" x1="273" y1="523.83" x2="273" y2="728.42" xlink:href="#New_Gradient_Swatch_1"/><linearGradient id="New_Gradient_Swatch_1-44" x1="180.75" y1="253.89" x2="180.75" y2="686.26" xlink:href="#New_Gradient_Swatch_1"/><linearGradient id="linear-gradient-12" x1="180.75" y1="260.05" x2="180.75" y2="679.55" gradientUnits="userSpaceOnUse"><stop offset="0" stop-color="#36faea" stop-opacity="0.55"/><stop offset="0.09" stop-color="#43fad8" stop-opacity="0.55"/><stop offset="0.71" stop-color="#98f862" stop-opacity="0.55"/><stop offset="1" stop-color="#b9f734" stop-opacity="0.55"/></linearGradient><linearGradient id="New_Gradient_Swatch_1-45" x1="180.75" y1="252.89" x2="180.75" y2="685.26" xlink:href="#New_Gradient_Swatch_1"/><linearGradient id="linear-gradient-13" x1="202.5" y1="501.05" x2="202.5" y2="1582.55" gradientUnits="userSpaceOnUse"><stop offset="0" stop-color="#36faea" stop-opacity="0.7"/><stop offset="0.03" stop-color="#3afae4" stop-opacity="0.5"/><stop offset="0.68" stop-color="#94f867" stop-opacity="0.5"/><stop offset="1" stop-color="#b9f734" stop-opacity="0.5"/></linearGradient><linearGradient id="linear-gradient-14" x1="1319.5" y1="195.55" x2="1319.5" y2="741.55" xlink:href="#linear-gradient-12"/><linearGradient id="New_Gradient_Swatch_1-48" x1="1319.5" y1="191.46" x2="1319.5" y2="743.05" xlink:href="#New_Gradient_Swatch_1"/><linearGradient id="New_Gradient_Swatch_1-49" x1="1406" y1="192.05" x2="1406" y2="885.05" xlink:href="#New_Gradient_Swatch_1"/><linearGradient id="linear-gradient-15" x1="1406" y1="193.55" x2="1406" y2="883.55" xlink:href="#linear-gradient-3"/><linearGradient id="New_Gradient_Swatch_1-51" x1="1528.5" y1="0" x2="1528.5" y2="646.22" xlink:href="#New_Gradient_Swatch_1"/><linearGradient id="linear-gradient-16" x1="1528.5" y1="7.55" x2="1528.5" y2="640.63" xlink:href="#linear-gradient-12"/><linearGradient id="New_Gradient_Swatch_1-53" x1="1752.25" y1="1.04" x2="1752.25" y2="528.05" xlink:href="#New_Gradient_Swatch_1"/><linearGradient id="linear-gradient-17" x1="1752.25" y1="4.05" x2="1752.25" y2="522.46" xlink:href="#linear-gradient-3"/><linearGradient id="New_Gradient_Swatch_1-55" x1="1333.5" y1="489.25" x2="1333.5" y2="1521.25" xlink:href="#New_Gradient_Swatch_1"/><linearGradient id="linear-gradient-18" x1="1333.5" y1="492.55" x2="1333.5" y2="1519.55" gradientTransform="matrix(1, 0, 0, 1, 0, 0)" xlink:href="#linear-gradient-2"/><linearGradient id="New_Gradient_Swatch_1-57" x1="1444.5" y1="490.05" x2="1444.5" y2="1521.05" xlink:href="#New_Gradient_Swatch_1"/><linearGradient id="linear-gradient-19" x1="1444.5" y1="492.05" x2="1444.5" y2="1519.05" xlink:href="#linear-gradient-3"/><linearGradient id="linear-gradient-20" x1="1719.5" y1="339.05" x2="1719.5" y2="1569.55" xlink:href="#linear-gradient-5"/><linearGradient id="New_Gradient_Swatch_1-59" x1="1719.5" y1="332.51" x2="1719.5" y2="1573.52" xlink:href="#New_Gradient_Swatch_1"/></defs><title>litbuildings</title><g id="Layer_2" data-name="Layer 2"><g id="Layer_1-2" data-name="Layer 1"><path class="cls-1" d="M360,271.05l20,25.5,1,48-42-51H327.5l.5-64Z"/><path class="cls-2" d="M359.5,271.05l20,25.5,1,48-42-51H327l.5-64Z"/><polyline class="cls-3" points="360.71 270.46 328.54 229.59 315.54 229.65 315.29 172.65 360.54 231.46 360.71 270.96"/><rect class="cls-4" x="304" y="37.05" width="0.5" height="131.5" transform="translate(608.5 205.61) rotate(180)"/><rect class="cls-5" x="259.5" y="169.55" width="53" height="57"/><g class="cls-6"><g class="cls-7"><rect class="cls-8" x="267" y="222.05" width="8.85" height="8.85"/><rect class="cls-8" x="267" y="207.05" width="8.85" height="8.85"/><rect class="cls-8" x="267" y="192.05" width="8.85" height="8.85"/><rect class="cls-8" x="267" y="177.05" width="8.85" height="8.85"/></g><g class="cls-7"><rect class="cls-8" x="281.58" y="222.05" width="8.85" height="8.85"/><rect class="cls-8" x="281.58" y="207.05" width="8.85" height="8.85"/><rect class="cls-8" x="281.58" y="192.05" width="8.85" height="8.85"/><rect class="cls-8" x="281.58" y="177.05" width="8.85" height="8.85"/></g><g class="cls-7"><rect class="cls-8" x="296.15" y="222.05" width="8.85" height="8.85"/><rect class="cls-8" x="296.15" y="207.05" width="8.85" height="8.85"/><rect class="cls-8" x="296.15" y="192.05" width="8.85" height="8.85"/><rect class="cls-8" x="296.15" y="177.05" width="8.85" height="8.85"/></g></g><polyline class="cls-9" points="246.5 289.55 246.5 226.55 325 226.55 325 290.55"/><polyline class="cls-9" points="246.5 289.55 246.5 226.55 325 226.55 325 290.55"/><g class="cls-10"><rect class="cls-11" x="254" y="280.05" width="14.9" height="14.9"/><rect class="cls-11" x="278.55" y="280.05" width="14.9" height="14.9"/><rect class="cls-11" x="303.1" y="280.05" width="14.9" height="14.9"/><rect class="cls-11" x="254" y="257.05" width="14.9" height="14.9"/><rect class="cls-11" x="278.55" y="257.05" width="14.9" height="14.9"/><rect class="cls-11" x="303.1" y="257.05" width="14.9" height="14.9"/><rect class="cls-11" x="254" y="235.05" width="14.9" height="14.9"/><rect class="cls-11" x="278.55" y="235.05" width="14.9" height="14.9"/><rect class="cls-11" x="303.1" y="235.05" width="14.9" height="14.9"/></g><polygon class="cls-12" points="339.5 293.55 404.5 372.55 403.5 789.55 339.5 743.55 339.5 293.55"/><polygon class="cls-12" points="339.5 293.55 404.5 372.55 403.5 789.55 339.5 743.55 339.5 293.55"/><polygon class="cls-13" points="234.5 412.55 235.5 532.55 309.5 597.55 309.5 723.55 336.5 740.55 336.5 290.55 234.5 290.55 234.5 412.55"/><polygon class="cls-13" points="234.5 412.55 235.5 532.55 309.5 597.55 309.5 723.55 336.5 740.55 336.5 290.55 234.5 290.55 234.5 412.55"/><g class="cls-14"><g class="cls-7"><rect class="cls-8" x="306.6" y="691.05" width="18.4" height="20"/><rect class="cls-8" x="306.6" y="661.05" width="18.4" height="20"/><rect class="cls-8" x="306.6" y="631.05" width="18.4" height="20"/><rect class="cls-8" x="306.6" y="601.05" width="18.4" height="20"/><rect class="cls-8" x="306.6" y="571.05" width="18.4" height="20"/><rect class="cls-8" x="306.6" y="541.05" width="18.4" height="20"/><rect class="cls-8" x="306.6" y="511.05" width="18.4" height="20"/><rect class="cls-8" x="306.6" y="481.05" width="18.4" height="20"/><rect class="cls-8" x="306.6" y="451.05" width="18.4" height="20"/><rect class="cls-8" x="306.6" y="421.05" width="18.4" height="20"/><rect class="cls-8" x="306.6" y="391.05" width="18.4" height="20"/><rect class="cls-8" x="306.6" y="361.05" width="18.4" height="20"/><rect class="cls-8" x="306.6" y="331.05" width="18.4" height="20"/><rect class="cls-8" x="306.6" y="301.05" width="18.4" height="20"/></g><g class="cls-7"><rect class="cls-8" x="246" y="691.05" width="18.4" height="20"/><rect class="cls-8" x="246" y="661.05" width="18.4" height="20"/><rect class="cls-8" x="246" y="631.05" width="18.4" height="20"/><rect class="cls-8" x="246" y="601.05" width="18.4" height="20"/><rect class="cls-8" x="246" y="571.05" width="18.4" height="20"/><rect class="cls-8" x="246" y="541.05" width="18.4" height="20"/><rect class="cls-8" x="246" y="511.05" width="18.4" height="20"/><rect class="cls-8" x="246" y="481.05" width="18.4" height="20"/><rect class="cls-8" x="246" y="451.05" width="18.4" height="20"/><rect class="cls-8" x="246" y="421.05" width="18.4" height="20"/><rect class="cls-8" x="246" y="391.05" width="18.4" height="20"/><rect class="cls-8" x="246" y="361.05" width="18.4" height="20"/><rect class="cls-8" x="246" y="331.05" width="18.4" height="20"/><rect class="cls-8" x="246" y="301.05" width="18.4" height="20"/></g><g class="cls-7"><rect class="cls-8" x="276.3" y="691.05" width="18.4" height="20"/><rect class="cls-8" x="276.3" y="661.05" width="18.4" height="20"/><rect class="cls-8" x="276.3" y="631.05" width="18.4" height="20"/><rect class="cls-8" x="276.3" y="601.05" width="18.4" height="20"/><rect class="cls-8" x="276.3" y="571.05" width="18.4" height="20"/><rect class="cls-8" x="276.3" y="541.05" width="18.4" height="20"/><rect class="cls-8" x="276.3" y="511.05" width="18.4" height="20"/><rect class="cls-8" x="276.3" y="481.05" width="18.4" height="20"/><rect class="cls-8" x="276.3" y="451.05" width="18.4" height="20"/><rect class="cls-8" x="276.3" y="421.05" width="18.4" height="20"/><rect class="cls-8" x="276.3" y="391.05" width="18.4" height="20"/><rect class="cls-8" x="276.3" y="361.05" width="18.4" height="20"/><rect class="cls-8" x="276.3" y="331.05" width="18.4" height="20"/><rect class="cls-8" x="276.3" y="301.05" width="18.4" height="20"/></g></g><polygon class="cls-15" points="544 410.05 643 555.05 643 1507.05 546 1521.05 544 410.05"/><polygon class="cls-16" points="541.5 406.55 367.5 406.55 367.5 762.55 400.5 786.55 401.5 1520.55 541.5 1520.55 541.5 406.55"/><polygon class="cls-17" points="541 406.05 367 406.05 367 762.05 400 786.05 401 1520.05 541 1520.05 541 406.05"/><g class="cls-7"><rect class="cls-8" x="391.5" y="563.55" width="55" height="30"/><rect class="cls-8" x="391.5" y="518.55" width="55" height="30"/><rect class="cls-8" x="391.5" y="473.55" width="55" height="30"/><rect class="cls-8" x="391.5" y="428.55" width="55" height="30"/></g><g class="cls-7"><rect class="cls-8" x="462" y="800.05" width="55" height="30"/><rect class="cls-8" x="462" y="755.05" width="55" height="30"/><rect class="cls-8" x="462" y="710.05" width="55" height="30"/><rect class="cls-8" x="462" y="665.05" width="55" height="30"/></g><rect class="cls-11" x="462" y="428.05" width="55" height="30"/><g class="cls-7"><rect class="cls-8" x="462" y="984.05" width="55" height="30"/><rect class="cls-8" x="462" y="939.05" width="55" height="30"/></g><rect class="cls-11" x="462" y="1466.05" width="55" height="30"/><polygon class="cls-18" points="21 256.05 107 256.05 107 581.05 21 516.05 21 256.05"/><polygon class="cls-19" points="20 256.05 106 256.05 106 581.05 20 516.05 20 256.05"/><g class="cls-7"><rect class="cls-8" x="21" y="533.05" width="86" height="26"/><rect class="cls-8" x="21" y="483.05" width="86" height="26"/><rect class="cls-8" x="21" y="433.05" width="86" height="26"/><rect class="cls-8" x="21" y="383.05" width="86" height="26"/><rect class="cls-8" x="21" y="333.05" width="86" height="26"/><rect class="cls-8" x="21" y="283.05" width="86" height="26"/></g><polygon class="cls-20" points="4 502.05 401.5 785.28 401.5 1519.55 3.5 1583.55 4 502.05"/><polygon class="cls-21" points="4 501.05 401.5 784.28 401.5 1518.55 3.5 1582.55 4 501.05"/><polygon class="cls-22" points="1343.5 743.55 1293.5 743.55 1293.5 256.55 1343.5 197.55 1343.5 743.55"/><rect class="cls-23" x="1345.5" y="195.55" width="119" height="690"/><rect class="cls-23" x="1345.5" y="195.55" width="119" height="690"/><g class="cls-24"><rect class="cls-8" x="1357" y="509.05" width="16" height="16"/><rect class="cls-8" x="1387" y="509.05" width="35" height="16"/><rect class="cls-8" x="1436" y="509.05" width="16" height="16"/><rect class="cls-8" x="1357" y="479.05" width="16" height="16"/><rect class="cls-8" x="1387" y="479.05" width="35" height="16"/><rect class="cls-8" x="1436" y="479.05" width="16" height="16"/><rect class="cls-8" x="1357" y="449.05" width="16" height="16"/><rect class="cls-8" x="1387" y="449.05" width="35" height="16"/><rect class="cls-8" x="1436" y="449.05" width="16" height="16"/><rect class="cls-8" x="1357" y="419.05" width="16" height="16"/><rect class="cls-8" x="1387" y="419.05" width="35" height="16"/><rect class="cls-8" x="1436" y="419.05" width="16" height="16"/><rect class="cls-8" x="1357" y="389.05" width="16" height="16"/><rect class="cls-8" x="1387" y="389.05" width="35" height="16"/><rect class="cls-8" x="1436" y="389.05" width="16" height="16"/><rect class="cls-8" x="1357" y="359.05" width="16" height="16"/><rect class="cls-8" x="1387" y="359.05" width="35" height="16"/><rect class="cls-8" x="1436" y="359.05" width="16" height="16"/><rect class="cls-8" x="1357" y="329.05" width="16" height="16"/><rect class="cls-8" x="1387" y="329.05" width="35" height="16"/><rect class="cls-8" x="1436" y="329.05" width="16" height="16"/><rect class="cls-8" x="1357" y="299.05" width="16" height="16"/><rect class="cls-8" x="1387" y="299.05" width="35" height="16"/><rect class="cls-8" x="1436" y="299.05" width="16" height="16"/><rect class="cls-8" x="1357" y="269.05" width="16" height="16"/><rect class="cls-8" x="1387" y="269.05" width="35" height="16"/><rect class="cls-8" x="1436" y="269.05" width="16" height="16"/><rect class="cls-8" x="1357" y="239.05" width="16" height="16"/><rect class="cls-8" x="1387" y="239.05" width="35" height="16"/><rect class="cls-8" x="1436" y="239.05" width="16" height="16"/><rect class="cls-8" x="1357" y="209.05" width="16" height="16"/><rect class="cls-8" x="1387" y="209.05" width="35" height="16"/><rect class="cls-8" x="1436" y="209.05" width="16" height="16"/></g><polygon class="cls-25" points="1292.5 564.55 1372.5 494.55 1372.5 1521.55 1292.5 1511.55 1292.5 564.55"/><polygon class="cls-25" points="1292.5 564.55 1372.5 494.55 1372.5 1521.55 1292.5 1511.55 1292.5 564.55"/><polygon class="cls-26" points="1374 494.05 1513 494.05 1513 1521.05 1375 1521.05 1374 494.05"/><polygon class="cls-26" points="1374 494.05 1513 494.05 1513 1521.05 1375 1521.05 1374 494.05"/><g class="cls-7"><rect class="cls-8" x="1373.5" y="1437.55" width="139" height="41"/><rect class="cls-8" x="1373.5" y="1337.55" width="139" height="41"/><rect class="cls-8" x="1373.5" y="1237.55" width="139" height="41"/><rect class="cls-8" x="1373.5" y="1137.55" width="139" height="41"/><rect class="cls-8" x="1373.5" y="1037.55" width="139" height="41"/><rect class="cls-8" x="1373.5" y="937.55" width="139" height="41"/><rect class="cls-8" x="1373.5" y="837.55" width="139" height="41"/><rect class="cls-8" x="1373.5" y="737.55" width="139" height="41"/><rect class="cls-8" x="1373.5" y="637.55" width="139" height="41"/><rect class="cls-8" x="1373.5" y="537.55" width="139" height="41"/></g><polygon class="cls-27" points="1923.5 341.05 1514.5 614.55 1512.5 1519.55 1924.5 1571.55 1923.5 341.05"/><path class="cls-1" d="M360,271.05l20,25.5,1,48-42-51H327.5l.5-64Z"/><path class="cls-28" d="M359.5,271.05l20,25.5,1,48-42-51H327l.5-64Z"/><polyline class="cls-29" points="360.71 270.46 328.54 229.59 315.54 229.65 315.29 172.65 360.54 231.46 360.71 270.96"/><rect class="cls-4" x="304" y="37.05" width="0.5" height="131.5" transform="translate(608.5 205.61) rotate(180)"/><rect class="cls-30" x="259.5" y="169.55" width="53" height="57"/><g class="cls-6"><g class="cls-7"><rect class="cls-31" x="267" y="222.05" width="8.85" height="8.85"/><rect class="cls-31" x="267" y="207.05" width="8.85" height="8.85"/><rect class="cls-31" x="267" y="192.05" width="8.85" height="8.85"/><rect class="cls-31" x="267" y="177.05" width="8.85" height="8.85"/></g><g class="cls-7"><rect class="cls-31" x="281.58" y="222.05" width="8.85" height="8.85"/><rect class="cls-31" x="281.58" y="207.05" width="8.85" height="8.85"/><rect class="cls-31" x="281.58" y="192.05" width="8.85" height="8.85"/><rect class="cls-31" x="281.58" y="177.05" width="8.85" height="8.85"/></g><g class="cls-7"><rect class="cls-31" x="296.15" y="222.05" width="8.85" height="8.85"/><rect class="cls-31" x="296.15" y="207.05" width="8.85" height="8.85"/><rect class="cls-31" x="296.15" y="192.05" width="8.85" height="8.85"/><rect class="cls-31" x="296.15" y="177.05" width="8.85" height="8.85"/></g></g><polyline class="cls-9" points="246.5 289.55 246.5 226.55 325 226.55 325 290.55"/><polyline class="cls-32" points="246.5 289.55 246.5 226.55 325 226.55 325 290.55"/><g class="cls-10"><rect class="cls-33" x="254" y="280.05" width="14.9" height="14.9"/><rect class="cls-33" x="278.55" y="280.05" width="14.9" height="14.9"/><rect class="cls-33" x="303.1" y="280.05" width="14.9" height="14.9"/><rect class="cls-33" x="254" y="257.05" width="14.9" height="14.9"/><rect class="cls-33" x="278.55" y="257.05" width="14.9" height="14.9"/><rect class="cls-33" x="303.1" y="257.05" width="14.9" height="14.9"/><rect class="cls-33" x="254" y="235.05" width="14.9" height="14.9"/><rect class="cls-33" x="278.55" y="235.05" width="14.9" height="14.9"/><rect class="cls-33" x="303.1" y="235.05" width="14.9" height="14.9"/></g><polygon class="cls-12" points="339.5 293.55 404.5 372.55 403.5 789.55 339.5 743.55 339.5 293.55"/><polygon class="cls-34" points="339.5 293.55 404.5 372.55 403.5 789.55 339.5 743.55 339.5 293.55"/><polygon class="cls-13" points="234.5 412.55 235.5 532.55 309.5 597.55 309.5 723.55 336.5 740.55 336.5 290.55 234.5 290.55 234.5 412.55"/><polygon class="cls-35" points="234.5 412.55 235.5 532.55 309.5 597.55 309.5 723.55 336.5 740.55 336.5 290.55 234.5 290.55 234.5 412.55"/><g class="cls-14"><g class="cls-7"><rect class="cls-31" x="306.6" y="691.05" width="18.4" height="20"/><rect class="cls-31" x="306.6" y="661.05" width="18.4" height="20"/><rect class="cls-31" x="306.6" y="631.05" width="18.4" height="20"/><rect class="cls-31" x="306.6" y="601.05" width="18.4" height="20"/><rect class="cls-31" x="306.6" y="571.05" width="18.4" height="20"/><rect class="cls-31" x="306.6" y="541.05" width="18.4" height="20"/><rect class="cls-31" x="306.6" y="511.05" width="18.4" height="20"/><rect class="cls-31" x="306.6" y="481.05" width="18.4" height="20"/><rect class="cls-31" x="306.6" y="451.05" width="18.4" height="20"/><rect class="cls-31" x="306.6" y="421.05" width="18.4" height="20"/><rect class="cls-31" x="306.6" y="391.05" width="18.4" height="20"/><rect class="cls-31" x="306.6" y="361.05" width="18.4" height="20"/><rect class="cls-31" x="306.6" y="331.05" width="18.4" height="20"/><rect class="cls-31" x="306.6" y="301.05" width="18.4" height="20"/></g><g class="cls-7"><rect class="cls-31" x="246" y="691.05" width="18.4" height="20"/><rect class="cls-31" x="246" y="661.05" width="18.4" height="20"/><rect class="cls-31" x="246" y="631.05" width="18.4" height="20"/><rect class="cls-31" x="246" y="601.05" width="18.4" height="20"/><rect class="cls-31" x="246" y="571.05" width="18.4" height="20"/><rect class="cls-31" x="246" y="541.05" width="18.4" height="20"/><rect class="cls-31" x="246" y="511.05" width="18.4" height="20"/><rect class="cls-31" x="246" y="481.05" width="18.4" height="20"/><rect class="cls-31" x="246" y="451.05" width="18.4" height="20"/><rect class="cls-31" x="246" y="421.05" width="18.4" height="20"/><rect class="cls-31" x="246" y="391.05" width="18.4" height="20"/><rect class="cls-31" x="246" y="361.05" width="18.4" height="20"/><rect class="cls-31" x="246" y="331.05" width="18.4" height="20"/><rect class="cls-31" x="246" y="301.05" width="18.4" height="20"/></g><g class="cls-7"><rect class="cls-31" x="276.3" y="691.05" width="18.4" height="20"/><rect class="cls-31" x="276.3" y="661.05" width="18.4" height="20"/><rect class="cls-31" x="276.3" y="631.05" width="18.4" height="20"/><rect class="cls-31" x="276.3" y="601.05" width="18.4" height="20"/><rect class="cls-31" x="276.3" y="571.05" width="18.4" height="20"/><rect class="cls-31" x="276.3" y="541.05" width="18.4" height="20"/><rect class="cls-31" x="276.3" y="511.05" width="18.4" height="20"/><rect class="cls-31" x="276.3" y="481.05" width="18.4" height="20"/><rect class="cls-31" x="276.3" y="451.05" width="18.4" height="20"/><rect class="cls-31" x="276.3" y="421.05" width="18.4" height="20"/><rect class="cls-31" x="276.3" y="391.05" width="18.4" height="20"/><rect class="cls-31" x="276.3" y="361.05" width="18.4" height="20"/><rect class="cls-31" x="276.3" y="331.05" width="18.4" height="20"/><rect class="cls-31" x="276.3" y="301.05" width="18.4" height="20"/></g></g><polygon class="cls-36" points="544 410.05 643 555.05 643 1507.05 546 1521.05 544 410.05"/><line class="cls-37" x1="571.5" y1="456.05" x2="571.5" y2="1519.05"/><line class="cls-37" x1="600.5" y1="493.05" x2="600.5" y2="1513.05"/><line class="cls-37" x1="625.5" y1="531.05" x2="625.5" y2="1507.05"/><polygon class="cls-16" points="541.5 406.55 367.5 406.55 367.5 762.55 400.5 786.55 401.5 1520.55 541.5 1520.55 541.5 406.55"/><polygon class="cls-38" points="541 406.05 367 406.05 367 762.05 400 786.05 401 1520.05 541 1520.05 541 406.05"/><g class="cls-7"><rect class="cls-31" x="391.5" y="563.55" width="55" height="30"/><rect class="cls-31" x="391.5" y="518.55" width="55" height="30"/><rect class="cls-31" x="391.5" y="473.55" width="55" height="30"/><rect class="cls-31" x="391.5" y="428.55" width="55" height="30"/></g><g class="cls-7"><rect class="cls-31" x="462" y="800.05" width="55" height="30"/><rect class="cls-31" x="462" y="755.05" width="55" height="30"/><rect class="cls-31" x="462" y="710.05" width="55" height="30"/><rect class="cls-31" x="462" y="665.05" width="55" height="30"/></g><rect class="cls-33" x="462" y="428.05" width="55" height="30"/><g class="cls-7"><rect class="cls-31" x="462" y="984.05" width="55" height="30"/><rect class="cls-31" x="462" y="939.05" width="55" height="30"/></g><rect class="cls-33" x="462" y="1466.05" width="55" height="30"/><polygon class="cls-18" points="21 256.05 107 256.05 107 581.05 21 516.05 21 256.05"/><polygon class="cls-39" points="20 256.05 106 256.05 106 581.05 20 516.05 20 256.05"/><g class="cls-7"><rect class="cls-31" x="21" y="533.05" width="86" height="26"/><rect class="cls-31" x="21" y="483.05" width="86" height="26"/><rect class="cls-31" x="21" y="433.05" width="86" height="26"/><rect class="cls-31" x="21" y="383.05" width="86" height="26"/><rect class="cls-31" x="21" y="333.05" width="86" height="26"/><rect class="cls-31" x="21" y="283.05" width="86" height="26"/></g><polygon class="cls-40" points="309.5 721.55 236.5 668.55 236.5 531.55 309.5 595.55 309.5 721.55"/><polygon class="cls-41" points="309.5 721.55 236.5 668.55 236.5 531.55 309.5 595.55 309.5 721.55"/><line class="cls-37" x1="291.5" y1="582.55" x2="291.5" y2="707.05"/><line class="cls-37" x1="271.5" y1="568.55" x2="272" y2="697.05"/><polygon class="cls-42" points="112 261.05 249.5 396.55 249.5 680.55 112 586.05 112 261.05"/><polygon class="cls-43" points="112 260.05 249.5 395.55 249.5 679.55 112 585.05 112 260.05"/><line class="cls-37" x1="150" y1="295.55" x2="150" y2="608.56"/><line class="cls-37" x1="187" y1="331.55" x2="187.5" y2="632.05"/><line class="cls-37" x1="219" y1="364.55" x2="219.5" y2="655.05"/><polygon class="cls-20" points="4 502.05 401.5 785.28 401.5 1519.55 3.5 1583.55 4 502.05"/><polygon class="cls-44" points="4 501.05 401.5 784.28 401.5 1518.55 3.5 1582.55 4 501.05"/><line class="cls-37" x1="63.5" y1="547.05" x2="63.5" y2="1576.05"/><line class="cls-37" x1="120.5" y1="582.05" x2="120.5" y2="1567.05"/><line class="cls-37" x1="180.5" y1="628.05" x2="180.5" y2="1554.05"/><line class="cls-37" x1="234.5" y1="662.05" x2="234.5" y2="1547.05"/><line class="cls-37" x1="283.5" y1="699.05" x2="283.5" y2="1539.05"/><line class="cls-37" x1="367.5" y1="768.05" x2="367.5" y2="1525.05"/><line class="cls-37" x1="329.5" y1="734.05" x2="329.5" y2="1532.05"/><polygon class="cls-45" points="1344.5 741.55 1294.5 741.55 1294.5 254.55 1344.5 195.55 1344.5 741.55"/><rect class="cls-46" x="1346.5" y="193.55" width="119" height="690"/><rect class="cls-47" x="1346.5" y="193.55" width="119" height="690"/><g class="cls-24"><rect class="cls-31" x="1358" y="507.05" width="16" height="16"/><rect class="cls-31" x="1388" y="507.05" width="35" height="16"/><rect class="cls-31" x="1437" y="507.05" width="16" height="16"/><rect class="cls-31" x="1358" y="477.05" width="16" height="16"/><rect class="cls-31" x="1388" y="477.05" width="35" height="16"/><rect class="cls-31" x="1437" y="477.05" width="16" height="16"/><rect class="cls-31" x="1358" y="447.05" width="16" height="16"/><rect class="cls-31" x="1388" y="447.05" width="35" height="16"/><rect class="cls-31" x="1437" y="447.05" width="16" height="16"/><rect class="cls-31" x="1358" y="417.05" width="16" height="16"/><rect class="cls-31" x="1388" y="417.05" width="35" height="16"/><rect class="cls-31" x="1437" y="417.05" width="16" height="16"/><rect class="cls-31" x="1358" y="387.05" width="16" height="16"/><rect class="cls-31" x="1388" y="387.05" width="35" height="16"/><rect class="cls-31" x="1437" y="387.05" width="16" height="16"/><rect class="cls-31" x="1358" y="357.05" width="16" height="16"/><rect class="cls-31" x="1388" y="357.05" width="35" height="16"/><rect class="cls-31" x="1437" y="357.05" width="16" height="16"/><rect class="cls-31" x="1358" y="327.05" width="16" height="16"/><rect class="cls-31" x="1388" y="327.05" width="35" height="16"/><rect class="cls-31" x="1437" y="327.05" width="16" height="16"/><rect class="cls-31" x="1358" y="297.05" width="16" height="16"/><rect class="cls-31" x="1388" y="297.05" width="35" height="16"/><rect class="cls-31" x="1437" y="297.05" width="16" height="16"/><rect class="cls-31" x="1358" y="267.05" width="16" height="16"/><rect class="cls-31" x="1388" y="267.05" width="35" height="16"/><rect class="cls-31" x="1437" y="267.05" width="16" height="16"/><rect class="cls-31" x="1358" y="237.05" width="16" height="16"/><rect class="cls-31" x="1388" y="237.05" width="35" height="16"/><rect class="cls-31" x="1437" y="237.05" width="16" height="16"/><rect class="cls-31" x="1358" y="207.05" width="16" height="16"/><rect class="cls-31" x="1388" y="207.05" width="35" height="16"/><rect class="cls-31" x="1437" y="207.05" width="16" height="16"/></g><polygon class="cls-48" points="1528.5 209.05 1528.5 130.55 1644.5 7.55 1644.5 526.46 1473 640.63 1472.5 492.55 1412.5 492.05 1412.5 324.55 1528.5 209.05"/><polygon class="cls-49" points="1528.5 209.05 1528.5 130.55 1644.5 7.55 1644.5 526.46 1473 640.63 1472.5 492.55 1412.5 492.05 1412.5 324.55 1528.5 209.05"/><polyline class="cls-50" points="1856 385.05 1648.5 522.46 1649 4.05 1856 5.05 1856 385.05 1648.5 522.46"/><polyline class="cls-51" points="1856 385.05 1648.5 522.46 1649 4.05 1856 5.05 1856 385.05 1648.5 522.46"/><g class="cls-7"><rect class="cls-31" x="1777.5" y="244.55" width="55" height="30"/><rect class="cls-31" x="1777.5" y="199.55" width="55" height="30"/><rect class="cls-31" x="1777.5" y="154.55" width="55" height="30"/><rect class="cls-31" x="1777.5" y="109.55" width="55" height="30"/></g><rect class="cls-33" x="1674" y="393.05" width="55" height="30"/><rect class="cls-33" x="1673" y="25.05" width="55" height="30"/><g class="cls-7"><line class="cls-52" x1="1600.5" y1="55.05" x2="1600.5" y2="558.05"/><line class="cls-52" x1="1563.5" y1="91.55" x2="1563.5" y2="581.05"/><line class="cls-52" x1="1528.5" y1="209.05" x2="1528.5" y2="603.55"/><line class="cls-52" x1="1496.5" y1="242.05" x2="1496.5" y2="491.05"/><line class="cls-52" x1="1437.5" y1="297.05" x2="1437.5" y2="490.55"/><line class="cls-52" x1="1465.5" y1="271.55" x2="1465.5" y2="490.55"/></g><polygon class="cls-53" points="1293.5 562.55 1373.5 492.55 1373.5 1519.55 1293.5 1509.55 1293.5 562.55"/><polygon class="cls-54" points="1293.5 562.55 1373.5 492.55 1373.5 1519.55 1293.5 1509.55 1293.5 562.55"/><polygon class="cls-55" points="1375 492.05 1514 492.05 1514 1519.05 1376 1519.05 1375 492.05"/><polygon class="cls-56" points="1375 492.05 1514 492.05 1514 1519.05 1376 1519.05 1375 492.05"/><g class="cls-7"><rect class="cls-31" x="1374.5" y="1435.55" width="139" height="41"/><rect class="cls-31" x="1374.5" y="1335.55" width="139" height="41"/><rect class="cls-31" x="1374.5" y="1235.55" width="139" height="41"/><rect class="cls-31" x="1374.5" y="1135.55" width="139" height="41"/><rect class="cls-31" x="1374.5" y="1035.55" width="139" height="41"/><rect class="cls-31" x="1374.5" y="935.55" width="139" height="41"/><rect class="cls-31" x="1374.5" y="835.55" width="139" height="41"/><rect class="cls-31" x="1374.5" y="735.55" width="139" height="41"/><rect class="cls-31" x="1374.5" y="635.55" width="139" height="41"/><rect class="cls-31" x="1374.5" y="535.55" width="139" height="41"/></g><polygon class="cls-57" points="1924.5 339.05 1515.5 612.55 1513.5 1517.55 1925.5 1569.55 1924.5 339.05"/><line class="cls-37" x1="1841.5" y1="1560.05" x2="1840.5" y2="389.05"/><line class="cls-37" x1="1769.5" y1="1551.05" x2="1769.5" y2="453.05"/><line class="cls-37" x1="1703.5" y1="1543.05" x2="1703.5" y2="491.05"/><line class="cls-37" x1="1646.5" y1="1536.05" x2="1650.5" y2="524.05"/><line class="cls-37" x1="1596.5" y1="1530.05" x2="1596.5" y2="560.05"/><line class="cls-37" x1="1513.5" y1="1517.05" x2="1513.5" y2="619.05"/><line class="cls-37" x1="1553.5" y1="1525.05" x2="1553.5" y2="592.05"/></g></g></svg>