<svg xmlns="http://www.w3.org/2000/svg" xmlns:xlink="http://www.w3.org/1999/xlink" viewBox="0 0 1927 762.2"><defs><style>.cls-1{fill:url(#New_Gradient_Swatch_1);}.cls-2{fill:#180724;opacity:0.7;}</style><linearGradient id="New_Gradient_Swatch_1" x1="967.5" x2="967.5" y2="761.2" gradientUnits="userSpaceOnUse"><stop offset="0" stop-color="#36faea"/><stop offset="0.46" stop-color="#78f88f"/><stop offset="0.83" stop-color="#a7f74d"/><stop offset="1" stop-color="#b9f734"/></linearGradient></defs><title>perspective1</title><g id="Layer_2" data-name="Layer 2"><g id="Layer_1-2" data-name="Layer 1"><path class="cls-1" d="M1927,377.4h-37.58V299h3.2l-27.19-15.19L1815,285.2l-16,9,.07-83.91h-5.6V191.1h-19.19v-24L1737,168.2v24h-15v19h-4v18h-22v19h-14v-55l-74,1v218l-54.41.38v-40h-30.38V266.26h-13.59V163.91l-27.19-3.2L1404,165.2v130l4.07-1V228.68l-33.07.52v44l-14.11.25V8h-7.2V0L1282,1.2v8h-9v99l-13,1v7h-6v112l-8,1v13l-32,1v170l-21.82-.62V395.79H1165.8V111.94h-71.56L1054,117.2v163l-69,1v123l-43.89.39v8h-52V391.8H775.6V210.29l-37.58-4H721.23v-4L688,203.2v3l-30,1,4,205-6.34.38V111.94h-2.4V62.37h-4.8V52.77h-12V48H619.68v-6.4L521,34.2v28l-12,1v349l-9.26.38V370.21H435V312.64h-2.4v-32L403,280.2l2,32-.41.43V239.88h3.2v-28H354.22V198.3L304,199.2v7l-10,1v5l-24,1v16l-34.92-.52v-8.8L191,221.2v7l-44,1v4h11v8h-3v8h-2v23l-29.06-.34v-24L84,249.2v163l-27.23.38-2.4-19.19H8V761.2H1927ZM268.66,231.88,270,233.2v8h5v37h-1v-30h-2l-.14-8.33h-3.2Z"/><path class="cls-2" d="M1919,378.4h-37.58V300h3.2l-27.19-15.19h-42.38l-24,13.4v-87h-5.6V192.1h-19.19v-24H1736.7v24H1721.5v19.19h-4v18.39h-21.59v20h-22.39V194.5H1608V413.59h-62.37v-40h-30.38V267.26h-13.59V164.91l-27.19-3.2-70.36,3.2V295.25h-4V229.68h-25.59v44.78H1352.9V9h-7.2V1h-64V9h-8.8v99.95h-12.79v7.2h-6.4V229.68h-8v13.59h-32V413.59h-29.58V396.79H1157.8V112.94h-71.56l-32.38,4V281.65H985.09V405.59h-52v8h-52V392.8H767.6V211.29l-37.58-4H713.23v-4H687.64v4H658.06V413.59H647.66V112.94h-2.4V63.37h-4.8V53.77h-12V49H611.68v-6.4l-90.35-8V63.37H508.54V413.59H491.74V371.21H427V313.64h-2.4v-32H399.79v32h-3.2V240.88h3.2v-28H346.22V199.3H303.84v8h-9.6v5.6h-24v16.79H227.08v-8.8h-36v8.8h-44v3.2h11.19v8h-3.2v8h-2.4v24H115.94v-24H84V413.59H48.77l-2.4-19.19H0V762.2H1919ZM260.66,232.88h9.59v8h4.8v37.58h-8.8V248.87h-2.4v-8h-3.2Z"/></g></g></svg>