<?xml version="1.0" encoding="UTF-8" standalone="no"?>
<!DOCTYPE svg PUBLIC "-//W3C//DTD SVG 1.1//EN" "http://www.w3.org/Graphics/SVG/1.1/DTD/svg11.dtd">
<svg width="100%" height="100%" viewBox="0 0 143 16" version="1.1" xmlns="http://www.w3.org/2000/svg" xmlns:xlink="http://www.w3.org/1999/xlink" xml:space="preserve" style="fill-rule:evenodd;clip-rule:evenodd;stroke-linejoin:round;stroke-miterlimit:1.41421;">
    <g>
        <g transform="matrix(1,0,0,1,0,-1)">
            <path d="M116.84,15.941L116.84,1.982L119.278,1.982L119.278,13.502L128.667,13.502L128.667,15.941L116.84,15.941Z" style="fill:rgb(0,43,128);fill-rule:nonzero;"/>
        </g>
        <g transform="matrix(1,0,0,1,0,-1)">
            <path d="M86.508,15.941C85.536,15.941 84.636,15.758 83.811,15.394C82.985,15.029 82.268,14.53 81.66,13.896C81.052,13.262 80.579,12.51 80.24,11.64C79.9,10.77 79.731,9.829 79.731,8.818C79.731,7.794 79.9,6.859 80.24,6.014C80.579,5.17 81.052,4.45 81.66,3.854C82.268,3.259 82.985,2.798 83.811,2.472C84.636,2.146 85.536,1.982 86.508,1.982L94.073,1.982L94.073,4.421L86.508,4.421C85.881,4.421 85.302,4.533 84.771,4.757C84.24,4.981 83.782,5.291 83.398,5.688C83.014,6.085 82.713,6.558 82.496,7.109C82.278,7.659 82.169,8.267 82.169,8.933C82.169,9.585 82.278,10.194 82.496,10.757C82.713,11.32 83.014,11.803 83.398,12.206C83.782,12.609 84.24,12.926 84.771,13.157C85.302,13.387 85.881,13.502 86.508,13.502L94.073,13.502L94.073,15.941L86.508,15.941Z" style="fill:rgb(0,43,128);fill-rule:nonzero;"/>
        </g>
        <g transform="matrix(1,0,0,1,0,-1)">
            <path d="M63.238,15.941L63.238,13.502L73.702,13.502C74.355,13.502 74.857,13.336 75.209,13.003C75.561,12.67 75.737,12.229 75.737,11.678C75.737,11.077 75.561,10.626 75.209,10.325C74.857,10.024 74.355,9.873 73.702,9.873L67.289,9.873C66.636,9.873 66.044,9.775 65.513,9.576C64.982,9.378 64.534,9.102 64.169,8.75C63.804,8.398 63.523,7.979 63.324,7.493C63.126,7.007 63.027,6.475 63.027,5.899C63.027,5.336 63.12,4.814 63.305,4.335C63.491,3.854 63.766,3.442 64.131,3.096C64.496,2.751 64.946,2.478 65.484,2.28C66.022,2.082 66.636,1.982 67.327,1.982L77.35,1.982L77.35,4.421L67.327,4.421C66.764,4.421 66.329,4.571 66.022,4.872C65.715,5.173 65.561,5.592 65.561,6.129C65.561,6.667 65.718,7.083 66.031,7.378C66.345,7.672 66.771,7.819 67.308,7.819L73.702,7.819C75.123,7.819 76.201,8.152 76.937,8.818C77.673,9.483 78.041,10.495 78.041,11.851C78.041,12.44 77.952,12.984 77.772,13.483C77.593,13.982 77.324,14.414 76.966,14.779C76.607,15.144 76.156,15.429 75.612,15.633C75.068,15.838 74.432,15.941 73.702,15.941L63.238,15.941Z" style="fill:rgb(0,43,128);fill-rule:nonzero;"/>
        </g>
        <g transform="matrix(1,0,0,1,0,-1)">
            <path d="M106.126,0.596L111.656,15.941L115.342,15.941L106.126,0.596Z" style="fill:rgb(0,43,128);fill-rule:nonzero;"/>
        </g>
        <g transform="matrix(1,0,0,1,0,-1)">
            <path d="M104.139,9.64L103.383,15.941L107.069,15.941L106.312,9.64L104.139,9.64Z" style="fill:rgb(0,43,128);fill-rule:nonzero;"/>
        </g>
        <g transform="matrix(1,0,0,1,0,-1)">
            <path d="M105.226,0.596L104.469,6.897L105.983,6.897L105.226,0.596Z" style="fill:rgb(0,43,128);fill-rule:nonzero;"/>
        </g>
        <g transform="matrix(1,0,0,1,0,-1)">
            <path d="M98.796,15.941L104.326,0.596L95.11,15.941L98.796,15.941Z" style="fill:rgb(0,43,128);fill-rule:nonzero;"/>
        </g>
        <g transform="matrix(1,0,0,1,0,-1)">
            <path d="M130.414,15.941L130.414,1.982L142.875,1.982L142.875,4.421L132.834,4.421L132.834,7.819L140.571,7.819L140.571,9.873L132.834,9.873L132.834,13.502L142.894,13.502L142.894,15.941L130.414,15.941Z" style="fill:rgb(0,43,128);fill-rule:nonzero;"/>
        </g>
        <g transform="matrix(1,0,0,1,0,-1)">
            <path d="M49.011,12.062L49.011,15.941L46.591,15.941L46.591,1.982L56.403,1.982C57.209,1.982 57.929,2.101 58.563,2.338C59.196,2.575 59.73,2.907 60.166,3.336C60.601,3.765 60.934,4.286 61.164,4.901C61.395,5.515 61.51,6.206 61.51,6.974C61.51,7.73 61.395,8.418 61.164,9.038C60.934,9.659 60.601,10.194 60.166,10.642C59.73,11.09 59.196,11.438 58.563,11.688C57.929,11.938 57.209,12.062 56.403,12.062L50.796,12.062L49.011,12.062ZM50.796,9.701L56.403,9.701C57.26,9.701 57.929,9.458 58.409,8.971C58.889,8.485 59.129,7.845 59.129,7.051C59.129,6.245 58.889,5.605 58.409,5.131C57.929,4.657 57.26,4.421 56.403,4.421L49.011,4.421L49.011,9.701L50.796,9.701Z" style="fill:rgb(0,43,128);fill-rule:nonzero;"/>
        </g>
        <g transform="matrix(1,0,0,1,0,-1)">
            <path d="M32.019,15.941L32.019,1.982L44.48,1.982L44.48,4.421L34.438,4.421L34.438,7.819L42.176,7.819L42.176,9.873L34.438,9.873L34.438,13.502L44.499,13.502L44.499,15.941L32.019,15.941Z" style="fill:rgb(0,43,128);fill-rule:nonzero;"/>
        </g>
        <g transform="matrix(1,0,0,1,0,-1)">
            <path d="M17.446,15.941L17.446,1.982L29.907,1.982L29.907,4.421L19.865,4.421L19.865,7.819L27.603,7.819L27.603,9.873L19.865,9.873L19.865,13.502L29.926,13.502L29.926,15.941L17.446,15.941Z" style="fill:rgb(0,43,128);fill-rule:nonzero;"/>
        </g>
        <g transform="matrix(1,0,0,1,0,-1)">
            <path d="M0.569,15.941L0.569,1.982L8.652,1.982C9.638,1.982 10.547,2.149 11.379,2.482C12.21,2.814 12.927,3.281 13.529,3.883C14.131,4.485 14.601,5.205 14.94,6.043C15.28,6.882 15.449,7.806 15.449,8.818C15.449,9.829 15.28,10.77 14.94,11.64C14.601,12.51 14.131,13.262 13.529,13.896C12.927,14.53 12.21,15.029 11.379,15.394C10.547,15.758 9.638,15.941 8.652,15.941L0.569,15.941ZM8.652,13.502C9.279,13.502 9.859,13.387 10.39,13.157C10.921,12.926 11.382,12.609 11.772,12.206C12.163,11.803 12.467,11.32 12.684,10.757C12.902,10.194 13.011,9.585 13.011,8.933C13.011,8.28 12.902,7.675 12.684,7.118C12.467,6.561 12.163,6.085 11.772,5.688C11.382,5.291 10.921,4.981 10.39,4.757C9.859,4.533 9.279,4.421 8.652,4.421L2.988,4.421L2.988,13.502L8.652,13.502Z" style="fill:rgb(0,43,128);fill-rule:nonzero;"/>
        </g>
    </g>
</svg>
