<?xml version="1.0" encoding="utf-8"?>
<!-- Generator: Adobe Illustrator 21.0.2, SVG Export Plug-In . SVG Version: 6.00 Build 0)  -->
<svg version="1.1" id="Layer_1" xmlns="http://www.w3.org/2000/svg" xmlns:xlink="http://www.w3.org/1999/xlink" x="0px" y="0px"
	 viewBox="0 0 199 103" style="enable-background:new 0 0 199 103;" xml:space="preserve">
<style type="text/css">
	.st0{clip-path:url(#SVGID_2_);}
	.st1{clip-path:url(#SVGID_4_);}
	.st2{clip-path:url(#SVGID_6_);}
	.st3{clip-path:url(#SVGID_8_);}
	.st4{clip-path:url(#SVGID_10_);}
	.st5{clip-path:url(#SVGID_12_);}
</style>
<g>
	<defs>
		<rect id="SVGID_1_" width="199" height="103"/>
	</defs>
	<clipPath id="SVGID_2_">
		<use xlink:href="#SVGID_1_"  style="overflow:visible;"/>
	</clipPath>
	<path class="st0" d="M40.8,87.5c0-6.7,3.7-10.3,8.7-10.3c4.6,0,6.8,2.6,7.7,6.2l-3.2,0.9c-0.8-2.6-1.9-4-4.5-4
		c-3.4,0-5.3,2.6-5.3,7.1c0,4.7,2,7.3,5.4,7.3c2.6,0,4-1.3,4.8-4.3l3.2,0.7c-1,4-3.4,6.6-8,6.6C44.4,97.8,40.8,94.3,40.8,87.5"/>
	<path class="st0" d="M59.4,90.3c0-5.3,3.5-7.4,7-7.4c3.5,0,7,2.2,7,7.4c0,5.2-3.5,7.4-7,7.4C62.9,97.8,59.4,95.6,59.4,90.3
		 M70,90.3c0-2.7-1.1-4.6-3.6-4.6c-2.4,0-3.6,1.7-3.6,4.6c0,2.7,1.1,4.7,3.6,4.7C68.7,95,70,93.3,70,90.3z"/>
	<path class="st0" d="M75.6,97.5V83.2h3.3v2c1.1-1.2,2.7-2.2,4.9-2.2c2.4,0,3.3,0.9,3.9,2.3c1.1-1.2,2.8-2.3,5-2.3
		c2.9,0,4.2,1.7,4.2,4.3v10.2h-3.3v-9.4c0-1.6-0.5-2.3-2-2.3c-1.3,0-2.4,0.8-3.7,1.9v9.9h-3.3v-9.4c0-1.6-0.5-2.3-2-2.3
		c-1.3,0-2.4,0.8-3.7,1.9v9.9H75.6"/>
	<path class="st0" d="M100,102.8V83.2h3.3v1.9c0.9-1.1,2.4-2.2,4.5-2.2c3.3,0,5.6,2.4,5.6,7.4c0,4.9-2.4,7.4-6.1,7.4
		c-1.5,0-3-0.6-4.1-1.8v7H100 M110.1,90.3c0-3-1.3-4.6-3.4-4.6c-1.4,0-2.7,0.9-3.5,1.8v5.7c0.9,1.2,2.2,1.8,3.4,1.8
		C109.1,95,110.1,93.5,110.1,90.3z"/>
	<path class="st0" d="M114.9,94c0-3.1,2.6-5.2,9.3-5.9v-0.4c0-1.4-0.7-2-2.3-2c-2,0-3.6,1-4.8,1.9l-1.6-2.1c1.5-1.4,3.9-2.6,6.9-2.6
		c3.8,0,5.1,1.8,5.1,5.2V94c0,1.7,0.1,2.8,0.4,3.5h-3.3c-0.2-0.6-0.3-1-0.3-1.8c-1.4,1.5-3.1,2-5.3,2
		C116.6,97.7,114.9,96.4,114.9,94 M124.2,93.5v-3.1c-4,0.5-6,1.5-6,3.1c0,1.1,0.8,1.7,2,1.7C121.8,95.1,123.2,94.5,124.2,93.5z"/>
</g>
<g>
	<defs>
		<rect id="SVGID_3_" y="0.9" width="198.1" height="102.1"/>
	</defs>
	<clipPath id="SVGID_4_">
		<use xlink:href="#SVGID_3_"  style="overflow:visible;"/>
	</clipPath>
	<g class="st1">
		<defs>
			<rect id="SVGID_5_" width="199" height="103"/>
		</defs>
		<clipPath id="SVGID_6_">
			<use xlink:href="#SVGID_5_"  style="overflow:visible;"/>
		</clipPath>
		<path class="st2" d="M130.5,97.5V83.2h3.3v2.3c1.1-1.2,2.7-2.6,5.1-2.6c2.6,0,4.2,1.3,4.2,4.2v10.4h-3.3V88c0-1.6-0.6-2.4-2.2-2.4
			c-1.4,0-2.7,0.7-3.9,1.9v9.9H130.5"/>
		<path class="st2" d="M143.9,102.6l0.8-2.7c0.4,0.1,1.3,0.3,2.4,0.3c1.2,0,1.8-0.5,2.3-1.6l0.4-1l-5.5-14.4h3.4l3.7,10.4h0.1
			l3.7-10.4h3.3L152.3,99c-0.9,2.5-2.2,4-5,4C145.6,103,144.6,102.8,143.9,102.6"/>
	</g>
</g>
<g>
	<defs>
		<rect id="SVGID_7_" width="199" height="103"/>
	</defs>
	<clipPath id="SVGID_8_">
		<use xlink:href="#SVGID_7_"  style="overflow:visible;"/>
	</clipPath>
	<polyline class="st3" points="82.5,20.7 82.5,4 76.3,4 76.3,0.9 92,0.9 92,4 85.8,4 85.8,20.7 82.5,20.7 	"/>
	<path class="st3" d="M93.9,20.7V0.9h3.3v7.6c0.9-1,2.6-2.2,5.2-2.2c2.5,0,4.1,1.5,4.1,4.3v10.2h-3.3v-9.4c0-1.6-0.7-2.3-2.1-2.3
		c-1.5,0-2.7,0.8-3.9,1.9v9.9H93.9"/>
</g>
<g>
	<defs>
		<rect id="SVGID_9_" y="0.9" width="198.1" height="102.1"/>
	</defs>
	<clipPath id="SVGID_10_">
		<use xlink:href="#SVGID_9_"  style="overflow:visible;"/>
	</clipPath>
	<g class="st4">
		<defs>
			<rect id="SVGID_11_" width="199" height="103"/>
		</defs>
		<clipPath id="SVGID_12_">
			<use xlink:href="#SVGID_11_"  style="overflow:visible;"/>
		</clipPath>
		<path class="st5" d="M108.8,13.6c0-5.4,3.8-7.4,6.8-7.4c3.2,0,6.3,1.9,6.3,7.7v0.8h-9.8c0.1,2.6,1.7,3.7,3.8,3.7
			c1.9,0,2.9-0.6,4-1.7l1.7,1.7c-1.5,1.6-3.4,2.6-6,2.6C112.2,21,108.8,18.9,108.8,13.6 M118.9,12.2c-0.2-2.2-1.3-3.3-3.3-3.3
			c-1.6,0-3.1,0.9-3.4,3.3H118.9z"/>
		<path class="st5" d="M122.5,42.6c0,0,0.5-0.7,0.9-1.3c0.8-1,2.1-2.4,3.1-3.3c0.3-0.3,0.7-0.6,0.7-0.6s-0.6,0.1-0.9,0.1
			c-0.8,0.2-1.9,0.9-2.5,1.4c-0.9,0.8-2,2.1-1.5,3.3C122.4,42.4,122.5,42.6,122.5,42.6 M127.7,44c1.5-0.1,2.9-0.5,4.2-1.2
			c1.3-0.7,3.1-2.1,2.9-3.7c-0.1-0.5-0.4-0.9-0.8-1.1c-0.6-0.2-0.9-0.2-1.6,0c-0.5,0.2-0.8,0.2-1.3,0.5c-1.5,0.8-3.5,2.7-4.6,4.1
			c-0.3,0.3-0.5,0.7-0.7,1c-0.1,0.2-0.2,0.3-0.2,0.3C125.6,44.1,127.1,44.1,127.7,44 M123.9,46.8c-0.2,0.2-0.3,0.6-0.5,0.8
			c-0.1,0.2-0.3,0.3-0.4,0.4c-0.4,0.3-0.7,0.3-1.1,0c-0.5-0.5-0.8-1.2-0.8-1.9c0-0.3,0-0.6,0-0.9c-0.1-0.4-0.5-0.9-0.8-1.3
			c-0.3-0.5-0.5-1.3-0.5-1.9c-0.1-1.7,0.8-3.3,2-4.5c1.2-1.2,2.7-2.3,4.4-3c1.6-0.7,3.9-1.1,5.6-0.5c0.6,0.2,1.4,0.7,1.8,1.2
			c0.1,0.1,0.2,0.2,0.2,0.3c0.1,0,0.3,0.1,0.4,0.1c0.6,0.1,1.4,0.5,1.7,0.8c0.7,0.6,1,1.1,1.2,1.9c0.3,1.6-0.6,3.3-1.6,4.4
			c-1.8,1.8-3.5,3.1-5.8,4c-1,0.4-2.5,0.8-3.7,0.7c-0.4,0-0.7-0.1-1.1-0.1c-0.2,0-0.8-0.2-0.9-0.2C124.1,46.8,124,46.8,123.9,46.8
			 M69.8,51.5c0.9-0.1,1.5-0.1,2.3-0.4c0.4-0.2,0.9-0.6,0.6-1c-0.1-0.3-0.6-0.4-0.9-0.4C70.8,49.7,70.1,50.4,69.8,51.5
			C69.8,51.4,69.8,51.5,69.8,51.5 M74,49c0.5,0.7,0.8,1.5,0.9,2.4c0.1,0.9-0.2,1.8-0.7,2.4c-0.9,1.2-2.3,1.7-3.7,1.8
			c-0.2,0-1.4,0-1.7,0c-0.1,0-0.1,0-0.1,0c0,0-0.2,0.8-0.3,1.1c-0.1,1-0.3,1.7-0.4,2.5c-0.1,0.6-0.2,1.3-0.2,1.9
			c-0.3,3.8-0.2,5.7,0.1,9.5c0,0.2,0,0.5,0,0.7c-0.1,0.4-0.4,0.8-0.8,0.9c-1.3,0.4-2.6-1-3.2-2c-1.5-2.4-1-7.5-0.6-9.9
			c0.2-1,0.6-3.3,1-4.1c0.2-0.4,0.4-1.3,0.4-1.3c0,0-0.7-0.3-1.3-0.5c-0.2-0.1-1-0.5-1.4-0.7c-0.7-0.4-1.2-0.8-1.7-1.4
			c-0.1-0.2-0.6-0.9-0.7-1.1c-0.4-0.9-0.4-1.7-0.1-2.6c0.1-0.2,0.6-1.3,0.9-1.2c0.5,0,0.4,0.8,0.5,1.2c0,0.1,0.2,0.4,0.3,0.5
			c0.7,0.8,2.8,1.6,3.7,1.9c0.1,0,1.5,0.5,1.7,0.4c0.1,0,0.3-0.5,0.5-0.8c0.1-0.2,0.2-0.3,0.3-0.4c0.9-0.9,2.1-1.8,3.4-2
			c0.6-0.1,1.6,0,2.2,0.3C73,48.3,73.4,48.4,74,49 M60.7,59.9c0,0,0.1,0,0.2,0c0.6,0.3,0.6,1.4,0.5,2c-0.4,1.4-1.8,2.9-2.8,3.6
			c-0.6,0.4-2,1-2.9,1.2c-1.5,0.3-2.8-0.1-3.6-1.3c-0.7-1.1-1-2.4-1.1-3.7c-0.2-3.6,1-8.8,2.4-11.8c0.2-0.4,1.1-2.3,2-2.6
			c0.9-0.3,1.2,0.7,1.3,1.5c0.1,1-0.2,2.2-0.4,3.3c-0.4,1.8-1,4.6-1.2,5.4c-0.2,0.9-0.5,2.7-0.4,3.6c0.1,0.5,0.2,0.7,0.5,0.7
			c0.2,0,2.6-1.1,3.9-1.6C59.5,60.1,60.2,59.9,60.7,59.9 M42.9,58.3c0,0,0.3,0,0.6,0c0.9,0,2.4-0.2,2.4-0.2s-0.2-1.3-0.3-2.2
			c-0.1-0.6-0.2-0.9-0.3-1.4c-0.1-0.2-0.2-0.8-0.3-1c0,0-0.1-0.1-0.1-0.1s-0.7,1.4-1.1,2.4c-0.3,0.8-0.5,1.4-0.7,1.8
			c-0.1,0.1-0.1,0.3-0.1,0.4C42.9,58.1,42.9,58.3,42.9,58.3 M38,58.4c0,0,0.4-1,0.8-1.7c0.4-0.8,2.1-4.4,2.9-5.4
			c0.8-1.1,2.4-3.3,2.4-3.3c0-0.2,0.1-0.7,0.3-1c0.2-0.3,0.6-0.4,1-0.4c0.5,0,0.9,0.3,1.1,0.7c0.4,0.7,1.1,2.7,1.2,3.2
			c0.8,2.7,1.6,7.7,1.9,10.3c0.1,0.7,0.3,4.2,0.3,5c0,0.6,0,1.5-0.3,1.9C49.5,67.9,49.3,68,49,68c-0.3,0-0.9-0.4-1.2-0.7
			c-0.7-0.7-1.2-1.4-1.4-2.2c-0.1-0.7-0.3-2.9-0.3-2.9l-3.1,0.1l-1.8,0c0,0-0.2,0.4-0.3,0.8c-0.3,0.7-0.6,1.5-0.7,1.9
			c-0.2,0.8-0.7,2.5-0.8,2.7c-0.2,0.5-0.4,0.8-0.9,0.9c-0.6,0.1-1,0.1-1.4-0.1c-0.8-0.4-1.1-1.3-1.3-2.3c-0.2-1.6,0.4-2.9,1.1-4.8
			c0.3-0.8-0.1-1.1-0.8-2.1c-0.1-0.1-0.2-0.3-0.2-0.4c0-0.1,0.1-0.4,0.2-0.5c0,0,0.1,0,0.1,0L38,58.4 M20.1,48c0,0,0-1-0.1-1.6
			c-0.1-0.5-0.2-0.8-0.4-1.2c-0.2-0.4-0.4-0.7-0.8-0.7c-0.5-0.1-0.8,0.3-1.1,0.7c-0.4,0.6-0.8,1.8-1,2.6c-0.3,1.1-0.5,1.7-0.7,3
			c-0.3,2-0.6,5.4-0.3,7.7c0.1,0.4,0.2,1,0.2,1s0.5-0.5,0.8-0.9c0.1-0.2,0.9-1.2,0.9-1.4c0.1-0.2,0.5-0.8,0.5-0.9
			c0.1-0.1,0.6-1.2,0.7-1.5c0.2-0.5,0.4-1.3,0.6-1.9c0.5-1.4,0.4-1.9,0.7-3.5C20.1,49.3,20.1,48,20.1,48C20.1,48,20.1,48,20.1,48
			 M16.6,62.9c0,0,0.2,0.3,0.3,0.6c0.8,1.4,2.2,2.2,3.8,2.3c1.7,0.1,3.8-0.9,5-1.7c3.5-2.4,5.3-6.8,6.3-10.9
			c1.2-4.9,1.2-10-0.2-14.8c-0.8-2.7-2.4-6.2-4.3-8.2c-0.6-0.6-1.5-1.4-1.7-1.8c-0.3-0.4-0.3-0.6,0.1-0.9c0.4-0.2,1.4,0.3,1.8,0.5
			c2.3,1.4,3.8,2.8,5.1,4.7c0.3,0.5,1.7,2.8,2,3.2c1.5,2.9,2.3,5.4,2.7,8.6c0.5,4.1,0.2,8.7-1.2,12.8c-0.6,1.8-1.6,3.6-2.6,5.2
			c-0.2,0.4-1.7,2.3-1.9,2.5c-0.5,0.5-1.7,1.6-2.3,2c-2.9,2.3-5.9,3.8-9.3,3.4c-1.9-0.2-3.4-0.8-4.9-2.1c-0.6-0.5-1.5-1.5-1.9-2.1
			c-0.2-0.4-0.6-1-0.6-1c0,0-0.2,0.1-0.4,0.2c-0.2,0.1-0.8,0.4-1.2,0.6c-2.3,0.9-4.9,0.7-7.1-0.7c-1.5-1-2.9-2.9-3.4-4.6
			c-0.9-2.6-0.9-5.2-0.6-7.9c0.6-4.6,2.3-9,4.7-12.9c1.6-2.4,3.6-4.9,6-6.6c0.3-0.2,1.8-1.1,2.1-1.2c0.5-0.3,1.3-0.5,1.7,0
			c0.2,0.2,0.2,0.4,0.1,0.7c-0.3,0.5-0.9,1.1-1.3,1.5c-0.3,0.3-2.1,2.5-2.5,3c-0.4,0.5-2.2,3.3-2.5,3.7c-2.3,4-4.1,10.3-3.9,15.1
			c0,1,0.2,2.5,0.4,3.4c0.3,1.3,1.1,3,2.2,3.8c1.2,0.8,2.3,0.8,3.7,0.2c0.4-0.2,0.9-0.4,0.9-0.4s-0.4-1.1-0.7-1.9
			c-0.8-2.2-1.1-5.8-0.8-8.3c0.2-2,0.7-3.6,1.6-5.2c0.7-1.3,1.7-2.5,2.9-3.6c1.2-1,3.1-1.9,4.7-1.9c1.4,0,2.8,0.6,3.5,1.8
			c1.3,2.2,1.3,5.6,1,7.9c-0.5,3.4-2.3,6.6-4.9,8.8C18.4,61.6,16.6,62.9,16.6,62.9 M126,50.3c0.1,0,0.2,0,0.3,0.1
			c0.8,0.3,1.1,1,1.3,1.8c0.5,1.9,0.6,6,0.7,7.7c0.1,1.2,0.1,2.4,0.1,3.6c0,1,0.1,2.4-0.1,3.3c-0.1,0.3-0.3,0.7-0.6,1
			c-0.4,0.2-1.2,0.3-1.7,0.2c-1.2-0.2-1.5-1-1.7-2.1c-0.4-2.8-0.2-8.1,0-10.4c0.1-0.8,0.4-3.2,0.8-4.2
			C125.2,50.9,125.5,50.2,126,50.3 M90.1,54.4c0,0-1.7,0.1-2.9,0.3c-1.5,0.2-4.3,0.7-6,1.2c-0.5,0.2-1.5,0.6-1.6,1.1
			c-0.1,0.5,0.2,0.9,0.6,1.4c0.2,0.2,1.4,1.4,1.7,1.7c1.4,1.2,4.2,2.9,6.3,3.8c0.7,0.3,1.9,0.7,1.9,0.7S90,61.2,90,57.9
			C90.1,56.2,90.1,54.4,90.1,54.4 M121.7,55.8c0.1,0.9-0.1,2.6-0.2,2.8c-0.1,0.5-0.5,1.7-0.5,1.9c-0.3,0.7-0.6,1.3-1,1.9
			c-0.6,1-1.9,2.6-2.7,3.3c-3,2.6-7.6,4-11.5,4.5c-2.7,0.3-5.7,0.3-8.6-0.2c-1-0.2-2.4-0.5-2.4-0.5s0,0.6,0,1c0,0.2-0.2,0.7-0.2,0.8
			c-0.2,0.4-0.5,0.6-1,0.7c-0.6,0.1-1.2,0.1-1.8-0.1c-0.9-0.4-1.2-1.2-1.4-2.2c-0.1-0.8-0.3-2.1-0.3-2.1s-0.7-0.3-1.2-0.6
			c-1.7-0.9-3.4-1.9-4.8-2.9c-0.4-0.3-2.1-1.7-2.5-2.1c-1.1-1-2-2-2.7-3.3c-0.6-1-0.7-1.9-0.3-2.9c0.6-1.5,2.7-2.6,4.2-3.2
			c1.1-0.5,4.4-1.5,5.7-1.7c0.6-0.1,1.7-0.3,1.7-0.3c0,0,0,0,0.1-0.1c0,0,0.1-1.5,0.1-2c0-0.5,0.4-4,0.5-4.7
			c0.1-0.4,0.4-1.9,0.7-2.3c0.2-0.3,0.6-0.2,0.8-0.1c1.6,1,2.1,4.4,2.2,6.1c0.1,1.1,0.1,2.6,0.1,2.6s1.8-0.1,2.9,0
			c1.1,0,2.3,0.2,3.4,0.4c1.4,0.2,4.2,0.8,5.8,1.7c1.3,0.7,2.6,1.8,3,3c0.4,1.1,0.3,1.9-0.3,2.8c-0.6,1.1-1.8,1.9-3.1,2
			c-0.4,0-1.7-0.2-2.2-0.5c-0.2-0.1-0.2-0.4,0-0.5c0-0.1,0.7-0.4,1.1-0.6c0.2-0.1,0.3-0.2,0.5-0.3c0.3-0.3,0.6-0.6,0.6-0.9
			c0-0.5-0.5-0.7-1-0.9c-2.2-0.9-6.6-1.6-8.7-1.7c-0.8,0-2-0.1-2-0.1l0.2,11.7c0,0,1,0.2,1.7,0.3c0.4,0.1,2.3,0.2,2.8,0.2
			c3.8,0.1,8-0.2,11.4-1.9c1.5-0.7,2.9-1.6,4-2.8c1.4-1.6,2.1-3.8,1.9-6.1c-0.2-2.5-2-5.4-3.4-7.2c-3.7-4.8-10-8.7-15.6-11
			c-5.7-2.3-11.3-3.7-17.4-3.9c-1.6-0.1-5,0-6.7,0.5c-0.2,0.1-0.5,0.2-0.7,0.2c-0.2,0-0.5,0.2-0.5,0.2c0,0-0.1,0.1-0.1,0.1
			s0.1,0.1,0.2,0.1c0.2,0.1,0.9,0.1,1.3,0.2c0.4,0.1,0.7,0.3,0.9,0.5c0.1,0.2,0.2,0.4,0,0.6c-0.4,0.5-1.9,0.4-2.5,0.3
			c-0.7-0.1-1.5-0.3-1.7-0.9c-0.2-0.7,0.1-1.4,0.5-2c0.7-1.2,1.7-1.9,3.2-2.3c2.1-0.6,4.8-1,6.8-1.1c4.5-0.2,8.8,0.6,13.2,1.9
			c2.5,0.8,5.8,2,8.2,3.2c1.7,0.8,4.4,2.4,6,3.4c0.5,0.3,3.3,2.4,3.7,2.7c0.9,0.7,2.1,1.8,3,2.7c1.7,1.7,3.7,4.2,4.8,6.2
			c0.2,0.5,0.4,1,0.7,1.5c0.1,0.2,0.6,1.3,0.6,1.7c0.1,0.3,0.2,0.8,0.2,0.8C121.5,54.4,121.7,55.4,121.7,55.8z M141.1,56.6
			c0.1,0,0.1,0,0.2,0c1.4,0.2,2.7,0.4,3.8,0.9c1,0.4,1.5,1,2,1.9c0.8,1.5,0.8,3.5,0.1,5c-0.5,1.1-1.7,2.1-2.7,2.6
			c-1.1,0.5-2.2,0.8-3.4,0.9c-2.2,0.2-4.5-0.2-6.5-1.2c-1.2-0.6-2.6-1.5-3.3-2.8c-0.5-0.9-0.5-2.1,0.1-3c1-1.4,3.2-1.7,4.8-1.6
			c1.3,0,3.5,0.4,4.7,0.9c0.3,0.1,1.5,0.6,1.8,0.8c0.1,0.2,0.2,0.4,0.2,0.6c-0.3,0.8-2.3,1.3-2.9,1.4c-1.6,0.2-2.4-0.4-4.1-1
			c-0.4-0.2-1-0.4-1.5-0.4c-0.8-0.1-1.8,0.1-1.9,1c-0.1,0.5,0.5,0.9,0.9,1.1c0.9,0.4,1.7,0.6,2.7,0.6c2.8,0,5.9-0.4,8.1-2
			c0.3-0.2,0.6-0.5,0.6-0.9c0-0.1-0.1-0.5-0.2-0.5c0,0,0,0-0.1,0c-0.1,0-0.1-0.2-0.2-0.2c-0.2-0.2-0.8-0.5-0.9-0.5
			c-1.5-0.6-4.3-0.9-5.8-1.1c-1.5-0.1-3.9-0.3-4.5-0.4c-0.6-0.1-1.2-0.2-1.7-0.4c-0.5-0.2-1-0.8-1.2-1.3c-0.3-1,0.1-2.3,0.7-3.1
			c1.5-2.2,5-3,7.7-3.3c2.6-0.3,6.7-0.3,9.2,1c0.4,0.2,0.6,0.4,0.5,0.8c-0.2,0.8-0.7,1.3-1.5,1.5c-0.7,0.2-2.3,0.3-3,0.4
			c-3,0.2-6.7,0.1-9.6,0.9c-0.2,0.1-0.6,0.2-0.7,0.3c-0.5,0.5,0.8,0.6,1.1,0.7c0.1,0,0.1,0,0.2,0L141.1,56.6 M150.6,67.9
			c-1.2-0.4-1.5-2.4-1.6-3.4c-0.2-3.2,0.7-7.8,1.8-10.8c0.3-0.9,0.8-2.3,1.7-2.2c0.7,0.1,1.1,0.6,1.5,1.1c1,1.3,2.2,3.2,3.1,4.5
			c0.9,1.4,1.8,2.9,2.7,4.2c0.1,0.2,0.2,0.3,0.3,0.4c0.2,0.1,0.3,0.1,0.4,0c0,0,0-1.7-0.1-2c-0.1-0.5-0.1-0.9-0.2-1.4
			c-0.2-1.3-0.6-3.2-0.9-4.4c-0.4-1.4-0.8-2.9-1.1-4.2c-0.1-0.4-0.2-0.9-0.2-1.3c0-0.6,0.4-0.9,1-0.7c1.2,0.4,2.9,3.1,3.4,4.1
			c0.2,0.3,0.8,1.9,1,2.4c0.5,1.5,0.8,3,1,4.7c0.1,1.6,0,4-0.7,5.6c-0.3,0.6-0.8,1.4-1.2,1.8c-0.7,0.6-2,1.1-3,0.6
			c-1-0.6-2.7-3.5-3-4c-1-1.7-2.7-5-2.9-5.4c-0.1-0.1-0.1-0.2-0.3-0.2c-0.1,0-0.1,0.2-0.2,0.3c-0.2,1-0.3,5.5-0.3,5.6
			c0,0.8-0.1,2.6-0.3,3.6c-0.1,0.6-0.3,1.1-0.8,1.4C151.3,68.2,151.1,68.1,150.6,67.9 M167.4,67.6c-0.1-0.1-0.3-0.3-0.5-0.5
			c0,0-0.5-0.7-0.6-0.9c-0.1-0.2-0.1-0.3-0.2-0.4c-0.4-1-0.4-2.1-0.2-3.2c0.2-1,0.4-1.1,0.9-2.5c0-0.1,0.1-0.1,0.1-0.2
			c0-0.2-0.3-1.5-0.3-1.9c0-0.6,0.5-1.1,1.3-1.2c0.1,0,0.1,0,0.2,0c0.3-0.1,0.5-0.7,0.7-1.2c0.3-0.7,0.6-1.8,0.6-1.8
			s-1.1-0.2-1.6-0.5c-0.6-0.2-1.1-0.5-1.4-1.1c-0.3-0.7-0.1-1.1,0.6-1.3c0.3-0.1,2.3-0.5,3-0.6c0.8-0.1,1.6-0.2,2.3-0.3
			c0.7-0.1,3.7-0.4,4.7-0.4c1.5,0,2.4,0.7,3.3,1.9c0.5,0.7,0.8,1.5,0.1,1.9c-1.1,0.7-4.6,0.7-5.2,0.7c-1,0-2.4,0-2.4,0l-0.7,2.4
			c0,0,2.5,0,3.9,0c0.3,0,0.7,0,0.9,0.1c0.7,0.2,1,0.7,1,1.5c0,0.9-0.1,1.4-0.9,1.5c-0.4,0.1-4.7,0.1-5.3,0.2
			c-0.4,0-0.8,0.1-0.8,0.1s-0.3,0.8-0.6,1.6c-0.3,0.9-0.5,1.7-0.5,1.7s0.2,0,0.4,0c0.3,0,0.6,0,0.9-0.1c1.3-0.2,3.3-0.5,4.9-0.8
			c0.9-0.1,1.3-0.2,1.8,0.4c0.4,0.5,0.6,0.9,0.6,1.5c0,0.6-0.4,1-1,1.4c-1.7,1.3-4.6,2.7-6.8,2.9c-1,0.1-1.2,0-2.1-0.2
			c-0.2,0-0.8-0.3-0.8-0.4C167.9,68,167.5,67.7,167.4,67.6z M194.7,55.7c-1.1,0.9-2.5,2.8-3.2,3.8c-0.9,1.3-1.8,2.8-2.6,4
			c-0.2,0.3-0.7,1.2-0.7,1.2c0,0.1,0.6,0,1.1,0c1.2-0.2,2.8-1,3.6-1.7c1.3-1,2.2-2.5,2.6-4.1c0.2-0.8,0.3-2.3-0.3-3.1
			C195.2,55.6,194.9,55.5,194.7,55.7 M185.9,69.3c0,0-0.4,1-0.6,1.8c-0.4,1.4-1.4,5.2-1.7,6.3c-0.3,1.7-1.3,6.3-1.4,6.4
			c-0.1,0.1-0.1,0.2-0.3,0.3c-0.4,0.2-0.6,0.2-1-0.1c-0.6-0.3-1.2-0.7-1.7-1.3c-0.9-1.2-0.7-3.6-0.5-4.9c0.6-4.8,1.3-6.9,3.1-11.6
			c0-0.1,0-0.1,0-0.2c-0.6-1.2-0.9-2.7-0.9-3.8c0-3.7,2.1-7.4,4.5-10.4c0.2-0.2,1.4-1.6,1.9-1.6c0.5,0,0.6,0.7,0.5,1.2
			c-0.3,1.7-1.5,3.5-2.3,4.9c-0.9,1.6-1.1,2.3-1.6,3.8c-0.1,0.2-0.3,1.3-0.2,1.5c0,0.4,0.1,0.9,0.1,0.9s1.5-2.1,2.5-3.4
			c0.5-0.7,0.9-1.2,1.4-1.7c0.5-0.5,2.2-2.4,2.7-2.8c1.1-1,1.5-1.4,2.7-2c0.9-0.5,1.7-0.6,2.6,0c1.4,0.9,2,2.9,2.2,4.5
			c0.2,1.9-0.2,4.1-1,5.7c-1,1.9-2.4,3.4-4.2,4.6c-1.9,1.3-4.1,2.1-6.3,2.1C186.2,69.3,185.9,69.3,185.9,69.3"/>
	</g>
</g>
</svg>
