<?xml version="1.0" encoding="utf-8"?>
<!-- Generator: Adobe Illustrator 22.1.0, SVG Export Plug-In . SVG Version: 6.00 Build 0)  -->
<svg version="1.1" id="Layer_1" xmlns="http://www.w3.org/2000/svg" xmlns:xlink="http://www.w3.org/1999/xlink" x="0px" y="0px"
	 viewBox="0 0 792 612" style="enable-background:new 0 0 792 612;" xml:space="preserve">
<path d="M198.2,205.9c0-2.5,0.2-4,4.5-4H260c10,0,15.5,8.5,19.5,24.5l3.2,12.8h9.8c1.8-36.2,3.2-52,3.2-52s-24.5,2.8-39,2.8h-73.2
	l-39.2-1.2v10.5l13.2,2.5c9.2,1.8,11.5,3.8,12.2,12.2c0,0,0.8,25,0.8,66.2s-0.8,66-0.8,66c0,7.5-3,10.2-12.2,12l-13.2,2.5v10.5
	l39.2-1.2H249c14.8,0,49,1.2,49,1.2c0.8-9,5.8-49.8,6.5-54.2h-9.2l-9.8,22.2c-7.8,17.5-19,18.8-31.5,18.8h-37.2
	c-12.5,0-18.5-5-18.5-15.8v-57c0,0,27.8,0,36.8,0.8c7,0.5,11.2,2.5,13.5,12.2l3,13h10.8l-0.8-32.8l1.5-33h-10.8l-3.5,14.5
	c-2.2,9.5-3.8,11.2-13.5,12.2c-12.8,1.2-37,1-37,1V205.9z M527.8,411.6c-7.5,0-9.8-3.5-10.8-8.5l-3.8-19.5l-10.5,0.5
	c-1.5,11.5-3.8,24.5-6.8,34.8c7,4.8,15.5,7,27,7c17,0,42.5-4.8,65.5-59l40-94.8c3.2-7.5,4.2-8.5,14-12.2l5.2-2v-8.8l-23.8,1.2
	l-25.2-1.2v8.8l6.5,2c6.5,2,9.5,4.2,9.5,9.5c0,2.8-0.8,4-2.2,7.5c-2.8,7-20.5,50.8-29.2,69.8c-11-27.5-26-68.5-27.8-74.5
	c-0.5-1.5-0.8-2.8-0.8-4c0-4,2.8-7.2,8.8-8.5l8.2-1.8v-8.8l-34.2,1.2l-27.2-1.2v8.8l4.5,1.5c6.5,2.2,7.2,3,11.5,12.5
	c17.2,39,36.5,88.8,42.8,105C555.5,404.1,539.5,411.6,527.8,411.6L527.8,411.6z M425.5,330.9l-9.5,0.2c1.2,12,1.5,24,0,35
	c0,0,19,7,38.2,7c26,0,46.8-12.5,46.8-36.8c0-42.5-63-35.8-63-64.2c0-11.8,10.8-16.2,21.8-16.2c9.2,0,16.8,3.2,18.2,8l6.2,18.8
	l9.2-0.5c0.5-10,1.2-21.5,2.8-30.8c-8-3.5-24.8-5.5-35.2-5.5c-24.5,0-44.2,10.8-44.2,34.8c0,42,61.5,32.8,61.5,64.2
	c0,10.5-6.8,18.5-21.8,18.5c-14.2,0-21.2-7.2-24-14.5L425.5,330.9z M346.8,212.9c-5.2,30.2-19.8,41.2-37.5,43.2v8.8h22.2v76.8
	c0,21.5,14.2,32,33.2,32c14.8,0,30-6.2,35.2-19.2l-5.2-6.8c-2.5,4.2-10.5,10.5-20.5,10.5c-11,0-17-7.5-17-26.5v-67.8l37,2.8l2-17
	l-39,1.5v-38.2H346.8z"/>
</svg>
