<?xml version="1.0" encoding="utf-8"?>
<!-- Generator: Adobe Illustrator 21.0.2, SVG Export Plug-In . SVG Version: 6.00 Build 0)  -->
<svg version="1.1" id="Layer_1" xmlns="http://www.w3.org/2000/svg" xmlns:xlink="http://www.w3.org/1999/xlink" x="0px" y="0px"
	 viewBox="0 0 354.9 157.5" style="enable-background:new 0 0 354.9 157.5;" xml:space="preserve">
<g>
	<path d="M215.7,54.8V52c0-2.4-1.4-3.8-4.4-3.8c-3.1,0-6.3,1.3-10.3,3.2l-3.1-6.5c4.3-2.2,9.4-3.7,13.7-3.7
		c9.2,0,12.8,4.5,12.8,11.1v13.4c0,1.7,1,2.5,2.6,2.5v6.1c-6.1,0-8.6-0.9-10.4-4c-2.7,2.9-5.7,4.5-10,4.5c-5.6,0-9.6-3.4-9.6-8.5
		C197.1,59.3,203.7,55.6,215.7,54.8z M209.5,68.5c2.7,0,4.7-1.1,6.1-2.7v-6.2c-5,0.3-9.8,1.6-9.8,5.6
		C205.8,67.2,207.3,68.5,209.5,68.5z"/>
	<path d="M232.5,41.9h8.3l0.4,3.7c2.3-2.5,5.8-4.5,9.8-4.5c7.2,0,10.3,4.4,10.3,11.7v21.3h-8.8V52.6c0-2.9-1.2-4.9-4.2-4.9
		c-2.7,0-5,1.4-7,3.8v22.6h-8.8V41.9z"/>
	<g>
		<path d="M181.9,32.1v28c0,4.3-2.1,6.8-5.8,6.8c-2.5,0-4.4-1.2-5.9-3.2l-6,5.5c3.1,3.7,7.3,5.8,12.4,5.8c8.8,0,14.3-5,14.3-14.6
			V32.1H181.9z"/>
	</g>
	<path d="M181,101.4c-4.6-1.2-8.6-2.2-8.6-5.6c0-2.9,2.7-4.8,6.8-4.8c3.8,0,7.7,0.9,11.4,2.7l3.2-6.7c-5-2.3-9.9-3.4-14.9-3.4
		c-9,0-15.3,5.1-15.3,12.4c0,9.2,7.6,11.2,14.2,12.9c4.7,1.2,8.7,2.3,8.7,5.8c0,3.1-2.7,4.9-7.2,4.9c-3.9,0-8.3-1.3-12.4-3.7
		l-4.1,6.7c4.5,2.7,11,4.5,16.6,4.5c10,0,16.1-4.8,16.1-12.5C195.3,105,187.4,103,181,101.4z"/>
	<path d="M202.5,100.3h-5.1V94h5.1v-8h8.8v8h7.2v6.2h-7.2v16c0,2.4,0.9,3.6,2.9,3.6c1.6,0,3.1-0.5,4.4-1.4l3.2,5.3
		c-2.5,1.9-5.9,3.2-9.4,3.2c-6.7,0-10-3.3-10-10.5V100.3z"/>
	<path d="M225.8,94h8.1l0.6,5c2.5-4.3,5.5-5.9,9.2-5.9c1.5,0,2.9,0.2,4,0.7l-1.3,8c-1.1-0.4-2.5-0.7-4.3-0.7c-3.3,0-5.5,2-7.5,5.8
		v19.4h-8.8V94z"/>
	<path d="M320,100.3h-5.1V94h5.1v-8h8.8v8h7.2v6.2h-7.2v16c0,2.4,0.9,3.6,2.9,3.6c1.6,0,3.1-0.5,4.4-1.4l3.2,5.3
		c-2.5,1.9-5.9,3.2-9.4,3.2c-6.7,0-10-3.3-10-10.5V100.3z"/>
	<path d="M282.7,41c-8.9,0-16.1,6.4-16.1,16.7c0,10.8,6.7,17.1,16.2,17.1c4.8,0,9.3-1.4,13.3-4.2l-3.7-5.6c-2.7,1.7-5.7,2.8-8.9,2.8
		c-4.5,0-7-2.3-7.8-6.9h20.8c0.2-1.4,0.6-2.8,0.6-5.2C297,47.1,291.9,41,282.7,41z M282.9,47.4c4.2,0,5.8,3.1,5.8,7.2h-13
		C276.5,49.9,279.3,47.4,282.9,47.4z"/>
	<path d="M298,93.2c-8.9,0-16.1,6.4-16.1,16.7c0,10.8,6.7,17.1,16.2,17.1c4.8,0,9.3-1.4,13.3-4.2l-3.7-5.6c-2.7,1.7-5.7,2.8-8.9,2.8
		c-4.5,0-7-2.3-7.8-6.9h20.8c0.2-1.4,0.6-2.8,0.6-5.2C312.3,99.3,307.2,93.2,298,93.2z M298.2,99.6c4.2,0,5.8,3.1,5.8,7.2h-13
		C291.8,102.1,294.6,99.6,298.2,99.6z"/>
	<path d="M264.3,93.2c-8.9,0-16.1,6.4-16.1,16.7c0,10.8,6.7,17.1,16.2,17.1c4.8,0,9.3-1.4,13.3-4.2l-3.7-5.6
		c-2.7,1.7-5.7,2.8-8.9,2.8c-4.5,0-7-2.3-7.8-6.9h20.8c0.2-1.4,0.6-2.8,0.6-5.2C278.7,99.3,273.6,93.2,264.3,93.2z M264.6,99.6
		c4.2,0,5.8,3.1,5.8,7.2h-13C258.1,102.1,261,99.6,264.6,99.6z"/>
</g>
<g>
	<path d="M35.7,103.8c8.6,14.7,24.7,24.6,42.9,24.6c27.4-0.1,49.5-22.4,49.5-49.7c-0.1-27.4-22.4-49.5-49.7-49.5
		c-27.4,0.1-49.5,22.4-49.5,49.7c0,3.3,0.4,6.6,1,9.7c0.1,0.4,0.5,0.6,0.9,0.5l6.9-1.7c0.4-0.1,0.7-0.5,0.6-0.9h0
		c-0.5-2.5-0.7-5-0.7-7.6c-0.1-22.6,18.3-41,40.9-41.1c22.6-0.1,41,18.3,41.1,40.9c0.1,22.6-18.3,41-40.9,41.1c-15,0-28.1-8-35.3-20
		l0,0c-0.2-0.4-0.6-0.5-1-0.3l-6.3,3.3C35.7,102.9,35.5,103.4,35.7,103.8z"/>
	<path d="M104.7,89.5l6.3,3.4c0.4,0.2,0.9,0.1,1-0.3c1.7-4.2,2.7-8.7,2.7-13.5c0.2-20-15.9-36.3-35.9-36.5l-0.3,0
		c-19.8,0-36,16.1-36.2,35.9c-0.2,20,15.9,36.3,35.9,36.5l0.3,0c9.4,0,18.1-3.7,24.5-9.7c0.3-0.3,0.4-0.8,0.1-1.1l-5.4-4.8
		c-0.3-0.3-0.8-0.2-1.1,0l0,0c-4.9,4.3-11.2,6.9-18.2,6.9l-0.2,0C63.1,106.2,50.9,93.7,51,78.5c0.1-15.1,12.5-27.3,27.5-27.3l0.2,0
		C94,51.4,106.2,63.8,106.1,79c0,3.3-0.7,6.5-1.8,9.4h0C104.2,88.9,104.3,89.3,104.7,89.5z"/>
	<path d="M115,27.4c-0.3-0.2-0.8-0.2-1,0.2l-4,5.8c-0.2,0.3-0.2,0.8,0.1,1.1l0,0c13.9,9.9,22.9,26.1,22.9,44.3
		c0,30-24.4,54.4-54.4,54.4c-30,0-54.4-24.4-54.4-54.4c0-30,24.4-54.4,54.4-54.4c6.5,0,12.8,1.2,18.6,3.3v0c0.4,0.1,0.8,0,1-0.4
		l2.5-6.7c0.1-0.4,0-0.8-0.4-1c-6.8-2.5-14.1-3.9-21.7-3.9c-34.8,0-63,28.3-63,63c0,34.8,28.3,63,63,63c34.8,0,63-28.3,63-63
		C141.6,57.6,131.1,38.8,115,27.4z"/>
</g>
</svg>
