<?xml version="1.0" encoding="utf-8"?>
<!-- Generator: Adobe Illustrator 22.0.1, SVG Export Plug-In . SVG Version: 6.00 Build 0)  -->
<svg version="1.1" id="Layer_1" xmlns="http://www.w3.org/2000/svg" xmlns:xlink="http://www.w3.org/1999/xlink" x="0px" y="0px"
	 viewBox="0 0 1062 471.5" style="enable-background:new 0 0 1062 471.5;" xml:space="preserve">
<style type="text/css">
	.st0{fill:#B9F734;}
	.st1{fill:#180724;}
	
		.st2{opacity:0.2;fill:none;stroke:#B2D339;stroke-width:10;stroke-linecap:round;stroke-linejoin:round;enable-background:new    ;}
	
		.st3{opacity:0.25;fill:none;stroke:#B2D339;stroke-width:8.5;stroke-linecap:round;stroke-linejoin:round;enable-background:new    ;}
	.st4{opacity:0.3;fill:none;stroke:#B2D339;stroke-width:5;stroke-linecap:round;stroke-linejoin:round;enable-background:new    ;}
	.st5{fill:none;stroke:#B2D339;stroke-width:7;stroke-linecap:round;stroke-linejoin:round;}
	.st6{fill:none;stroke:#C3DB69;stroke-width:5.5;stroke-linecap:round;stroke-linejoin:round;}
	.st7{fill:none;stroke:#D2E392;stroke-width:4;stroke-linecap:round;stroke-linejoin:round;}
	.st8{fill:none;stroke:#DEEBB1;stroke-width:2.5;stroke-linecap:round;stroke-linejoin:round;}
	.st9{fill:none;stroke:#EAF2CE;stroke-linecap:round;stroke-linejoin:round;}
</style>
<title>sign</title>
<g id="Layer_2_1_">
	<g id="Layer_1-2">
		<path class="st0" d="M50.2,113h971.6c22.2,0,40.2,18,40.2,40.2v278.1c0,22.2-18,40.2-40.2,40.2H50.2c-22.2,0-40.2-18-40.2-40.2
			V153.2C10,131,28,113,50.2,113z"/>
		<path class="st1" d="M40.2,100h971.6c22.2,0,40.2,18,40.2,40.2v278.1c0,22.2-18,40.2-40.2,40.2H40.2C18,458.5,0,440.5,0,418.3
			V140.2C0,118,18,100,40.2,100z"/>
		<line class="st2" x1="33" y1="5.5" x2="32.5" y2="127"/>
		<line class="st3" x1="33" y1="5.5" x2="32.5" y2="127"/>
		<line class="st4" x1="33" y1="5.5" x2="32.5" y2="127"/>
		<line class="st5" x1="33" y1="5.5" x2="32.5" y2="127"/>
		<line class="st6" x1="33" y1="5.5" x2="32.5" y2="127"/>
		<line class="st7" x1="33" y1="5.5" x2="32.5" y2="127"/>
		<line class="st8" x1="33" y1="5.5" x2="32.5" y2="127"/>
		<line class="st9" x1="33" y1="5.5" x2="32.5" y2="127"/>
		<line class="st2" x1="1019.5" y1="5" x2="1019.5" y2="126"/>
		<line class="st3" x1="1019.5" y1="5" x2="1019.5" y2="126"/>
		<line class="st4" x1="1019.5" y1="5" x2="1019.5" y2="126"/>
		<line class="st5" x1="1019.5" y1="5" x2="1019.5" y2="126"/>
		<line class="st6" x1="1019.5" y1="5" x2="1019.5" y2="126"/>
		<line class="st7" x1="1019.5" y1="5" x2="1019.5" y2="126"/>
		<line class="st8" x1="1019.5" y1="5" x2="1019.5" y2="126"/>
		<line class="st9" x1="1019.5" y1="5" x2="1019.5" y2="126"/>
	</g>
</g>
</svg>
