<svg xmlns="http://www.w3.org/2000/svg" viewBox="0 0 1062 471.5"><defs><style>.cls-1{fill:#b9f734;}.cls-2{fill:#180724;}.cls-10,.cls-3,.cls-4,.cls-5,.cls-6,.cls-7,.cls-8,.cls-9{fill:none;stroke-linecap:round;stroke-linejoin:round;}.cls-3,.cls-4,.cls-5,.cls-6{stroke:#b2d339;}.cls-3{stroke-width:10px;opacity:0.2;}.cls-4{stroke-width:8.5px;opacity:0.25;}.cls-5{stroke-width:5px;opacity:0.3;}.cls-6{stroke-width:7px;}.cls-7{stroke:#c3db69;stroke-width:5.5px;}.cls-8{stroke:#d2e392;stroke-width:4px;}.cls-9{stroke:#deebb1;stroke-width:2.5px;}.cls-10{stroke:#eaf2ce;}.cls-11{font-size:48px;font-family:LoveloBlack, Lovelo;}.cls-12{letter-spacing:-0.03em;}.cls-13{letter-spacing:-0.02em;}</style></defs><title>sign</title><g id="Layer_2" data-name="Layer 2"><g id="Layer_1-2" data-name="Layer 1"><rect class="cls-1" x="10" y="113" width="1052" height="358.5" rx="40.22" ry="40.22"/><rect class="cls-2" y="100" width="1052" height="358.5" rx="40.22" ry="40.22"/><line class="cls-3" x1="33" y1="5.5" x2="32.5" y2="127"/><line class="cls-4" x1="33" y1="5.5" x2="32.5" y2="127"/><line class="cls-5" x1="33" y1="5.5" x2="32.5" y2="127"/><line class="cls-6" x1="33" y1="5.5" x2="32.5" y2="127"/><line class="cls-7" x1="33" y1="5.5" x2="32.5" y2="127"/><line class="cls-8" x1="33" y1="5.5" x2="32.5" y2="127"/><line class="cls-9" x1="33" y1="5.5" x2="32.5" y2="127"/><line class="cls-10" x1="33" y1="5.5" x2="32.5" y2="127"/><line class="cls-3" x1="1019.5" y1="5" x2="1019.5" y2="126"/><line class="cls-4" x1="1019.5" y1="5" x2="1019.5" y2="126"/><line class="cls-5" x1="1019.5" y1="5" x2="1019.5" y2="126"/><line class="cls-6" x1="1019.5" y1="5" x2="1019.5" y2="126"/><line class="cls-7" x1="1019.5" y1="5" x2="1019.5" y2="126"/><line class="cls-8" x1="1019.5" y1="5" x2="1019.5" y2="126"/><line class="cls-9" x1="1019.5" y1="5" x2="1019.5" y2="126"/><line class="cls-10" x1="1019.5" y1="5" x2="1019.5" y2="126"/><text class="cls-11" transform="translate(769.58 99.77)">REGISTER</text><text class="cls-11" transform="translate(64.53 99.77)">SPEAKERS</text><text class="cls-11" transform="translate(475.68 99.77)">SPONSORs</text><text class="cls-11" transform="translate(337.05 99.77)"><tspan class="cls-12">F</tspan><tspan class="cls-13" x="21.31" y="0">A</tspan><tspan x="51.55" y="0">Q</tspan></text></g></g></svg>